<?xml version="1.0" standalone="no"?>
<!DOCTYPE svg PUBLIC "-//W3C//DTD SVG 20010904//EN"
 "http://www.w3.org/TR/2001/REC-SVG-20010904/DTD/svg10.dtd">
<svg version="1.0" xmlns="http://www.w3.org/2000/svg"
 width="540.000000pt" height="540.000000pt" viewBox="0 0 540.000000 540.000000"
 preserveAspectRatio="xMidYMid meet">
<metadata>
Created by potrace 1.14, written by Peter Selinger 2001-2017
</metadata>
<g transform="translate(0.000000,540.000000) scale(0.100000,-0.100000)"
fill="#000000" stroke="none">
<path d="M5365 4880 c-16 -9 -64 -34 -105 -57 -41 -22 -120 -60 -174 -84 -55
-23 -113 -55 -130 -70 -33 -28 -345 -202 -386 -214 -39 -12 -103 -45 -125 -66
-27 -24 -278 -161 -338 -183 -26 -10 -60 -28 -75 -41 -35 -29 -210 -125 -284
-154 -32 -13 -63 -30 -69 -38 -7 -8 -30 -23 -51 -34 -36 -19 -37 -20 -21 -39
10 -11 23 -20 29 -20 7 0 21 -18 32 -40 10 -22 23 -36 28 -32 4 4 2 -1 -5 -11
-12 -15 -12 -17 3 -11 12 4 15 2 10 -9 -10 -26 11 -27 62 -2 27 14 55 25 62
25 6 0 12 4 12 8 0 5 18 15 40 22 22 7 40 17 40 22 0 4 7 8 15 8 26 0 416 196
408 205 -5 4 -3 5 4 2 11 -7 157 56 148 64 -2 3 4 5 14 6 10 1 89 36 176 77
86 42 162 73 169 69 6 -3 8 -2 3 2 -9 10 83 57 100 51 6 -3 14 1 16 8 3 7 20
20 39 29 191 90 232 107 244 103 8 -3 13 0 11 6 -1 7 3 13 8 13 6 1 36 14 68
29 45 22 57 32 57 51 0 13 -6 26 -12 28 -10 4 -10 6 0 6 7 1 12 16 12 42 0 24
-4 38 -10 34 -5 -3 -10 -2 -10 4 0 5 5 13 10 16 14 9 12 43 -2 47 -10 4 -10
13 1 44 7 21 11 53 9 69 -3 30 -3 30 -33 15z m-9 -136 c-4 -14 -11 -22 -16
-19 -9 5 -8 13 6 53 9 25 17 -3 10 -34z m-43 -19 c-3 -13 -9 -23 -13 -20 -4 2
-5 16 -3 30 3 13 9 23 13 20 4 -2 5 -16 3 -30z m-52 -38 c-8 -8 -11 -4 -11 14
0 33 14 47 18 19 2 -12 -1 -27 -7 -33z m89 -17 c0 -5 -5 -10 -11 -10 -5 0 -7
5 -4 10 3 6 8 10 11 10 2 0 4 -4 4 -10z m-48 -32 c-7 -7 -12 -8 -12 -2 0 14
12 26 19 19 2 -3 -1 -11 -7 -17z m48 -23 c-25 -13 -49 -24 -55 -24 -5 0 10 11
35 24 25 13 50 24 55 24 6 0 -10 -11 -35 -24z m-80 11 c0 -3 -4 -8 -10 -11 -5
-3 -10 -1 -10 4 0 6 5 11 10 11 6 0 10 -2 10 -4z m75 -45 c-3 -6 -33 -23 -68
-39 -34 -17 -138 -67 -231 -111 -93 -45 -171 -79 -174 -77 -2 3 13 13 34 23
22 10 41 21 44 24 3 3 12 8 20 11 8 4 96 45 195 92 98 47 181 86 183 86 2 0 1
-4 -3 -9z m-399 -59 c-11 -10 -15 4 -8 28 l7 25 3 -23 c2 -13 1 -26 -2 -30z
m199 -7 c-60 -30 -165 -82 -232 -115 -68 -33 -123 -57 -123 -54 0 7 442 224
455 223 6 0 -39 -25 -100 -54z m-230 14 c-6 -33 -15 -36 -15 -6 0 15 4 27 9
27 6 0 8 -10 6 -21z m420 13 c-12 -11 -353 -172 -363 -172 -13 1 30 22 198
102 167 79 182 85 165 70z m-455 -24 c0 -7 -5 -20 -10 -28 -8 -12 -10 -9 -10
13 0 15 5 27 10 27 6 0 10 -6 10 -12z m-49 -51 c-8 -8 -11 -5 -11 9 0 27 14
41 18 19 2 -9 -1 -22 -7 -28z m-31 -2 c0 -14 -4 -25 -9 -25 -4 0 -6 11 -3 25
2 14 6 25 8 25 2 0 4 -11 4 -25z m-39 -32 c-9 -16 -10 -15 -11 8 0 14 3 29 8
33 12 12 14 -22 3 -41z m181 25 c-7 -7 -12 -8 -12 -2 0 6 3 14 7 17 3 4 9 5
12 2 2 -3 -1 -11 -7 -17z m-212 -28 c0 -11 -4 -20 -9 -20 -5 0 -7 9 -4 20 3
11 7 20 9 20 2 0 4 -9 4 -20z m180 16 c0 -3 -4 -8 -10 -11 -5 -3 -10 -1 -10 4
0 6 5 11 10 11 6 0 10 -2 10 -4z m-219 -49 c-8 -8 -11 -5 -11 9 0 27 14 41 18
19 2 -9 -1 -22 -7 -28z m142 8 c-3 -9 -8 -14 -10 -11 -3 3 -2 9 2 15 9 16 15
13 8 -4z m-33 -15 c0 -5 -5 -10 -11 -10 -5 0 -7 5 -4 10 3 6 8 10 11 10 2 0 4
-4 4 -10z m-70 -34 c0 -3 -4 -8 -10 -11 -5 -3 -10 -1 -10 4 0 6 5 11 10 11 6
0 10 -2 10 -4z m119 -20 c-15 -13 -142 -67 -146 -62 -4 3 27 21 68 40 41 19
76 32 78 30 2 -2 2 -6 0 -8z m-406 -61 c-7 -21 -13 -19 -13 6 0 11 4 18 10 14
5 -3 7 -12 3 -20z m353 10 c-11 -8 -25 -15 -30 -15 -6 1 0 7 14 15 32 19 40
18 16 0z m-389 -37 c-3 -7 -5 -2 -5 12 0 14 2 19 5 13 2 -7 2 -19 0 -25z m-30
-10 c-3 -7 -5 -2 -5 12 0 14 2 19 5 13 2 -7 2 -19 0 -25z m-30 -20 c-3 -7 -5
-2 -5 12 0 14 2 19 5 13 2 -7 2 -19 0 -25z m-30 -10 c-3 -7 -5 -2 -5 12 0 14
2 19 5 13 2 -7 2 -19 0 -25z m299 17 c-11 -8 -25 -15 -30 -15 -6 1 0 7 14 15
32 19 40 18 16 0z m-67 1 c-2 -2 -15 -9 -29 -15 -24 -11 -24 -11 -6 3 16 13
49 24 35 12z m-262 -38 c-3 -7 -5 -2 -5 12 0 14 2 19 5 13 2 -7 2 -19 0 -25z
m-26 -5 c-8 -15 -10 -15 -11 -2 0 17 10 32 18 25 2 -3 -1 -13 -7 -23z m309 23
c0 -3 -66 -37 -147 -76 -247 -121 -314 -152 -319 -148 -5 6 435 221 464 227 1
1 2 -1 2 -3z m-90 -11 c0 -3 -27 -18 -60 -35 -33 -17 -60 -28 -60 -25 0 2 26
18 58 34 64 34 62 33 62 26z m-240 -20 c0 -8 -4 -15 -10 -15 -5 0 -7 7 -4 15
4 8 8 15 10 15 2 0 4 -7 4 -15z m110 -15 c0 -5 -2 -10 -4 -10 -3 0 -8 5 -11
10 -3 6 -1 10 4 10 6 0 11 -4 11 -10z m-40 -54 c0 -2 -7 -7 -16 -10 -8 -3 -12
-2 -9 4 6 10 25 14 25 6z m-304 -63 c-10 -10 -19 5 -10 18 6 11 8 11 12 0 2
-7 1 -15 -2 -18z m-29 -5 c-3 -8 -6 -5 -6 6 -1 11 2 17 5 13 3 -3 4 -12 1 -19z
m-17 -8 c0 -5 -5 -10 -11 -10 -5 0 -7 5 -4 10 3 6 8 10 11 10 2 0 4 -4 4 -10z
m-33 -22 c-3 -8 -6 -5 -6 6 -1 11 2 17 5 13 3 -3 4 -12 1 -19z m-20 -10 c-3
-8 -6 -5 -6 6 -1 11 2 17 5 13 3 -3 4 -12 1 -19z m-17 -8 c0 -5 -4 -10 -10
-10 -5 0 -10 5 -10 10 0 6 5 10 10 10 6 0 10 -4 10 -10z m95 -70 c-3 -5 -12
-10 -18 -10 -7 0 -6 4 3 10 19 12 23 12 15 0z"/>
<path d="M5165 4409 c-126 -60 -238 -107 -248 -104 -11 2 -16 1 -13 -3 8 -8
-80 -52 -444 -222 -469 -219 -744 -351 -754 -361 -6 -6 -5 -9 3 -9 9 0 11 -7
6 -22 -3 -13 -8 -33 -10 -45 -2 -11 -6 -30 -10 -42 -3 -12 -5 -21 -3 -21 2 0
42 16 88 36 47 19 101 42 121 49 20 7 45 18 55 24 11 6 75 35 144 65 69 29
161 70 205 91 44 20 107 47 140 60 117 45 220 95 218 104 -2 6 4 8 11 5 8 -3
124 43 258 101 134 59 293 128 353 153 125 51 124 50 106 61 -11 7 -11 9 0 13
8 3 11 8 8 12 -3 3 -56 -17 -118 -44 -61 -27 -110 -46 -107 -41 3 4 55 30 116
56 l110 48 0 73 c0 41 -1 74 -2 73 -2 0 -106 -50 -233 -110z m160 20 c0 -7 -8
-15 -17 -17 -18 -3 -25 18 -11 32 10 10 28 1 28 -15z m-106 -40 c-11 -7 -11
-9 1 -9 13 0 13 -1 0 -10 -8 -5 -18 -10 -22 -10 -13 0 -9 38 5 43 18 7 31 -4
16 -14z m-99 -44 c-11 -13 -10 -15 6 -9 18 5 18 5 1 -6 -13 -8 -22 -9 -29 -2
-13 13 -2 32 19 32 13 0 13 -3 3 -15z m210 -45 c-8 -5 -19 -10 -25 -10 -5 0
-3 5 5 10 8 5 20 10 25 10 6 0 3 -5 -5 -10z m-300 -16 c0 -2 -7 -4 -15 -4 -8
0 -15 4 -15 10 0 5 7 7 15 4 8 -4 15 -8 15 -10z m-94 -29 c1 -7 -4 -16 -12
-19 -9 -3 -14 1 -14 13 0 33 21 38 26 6z m304 11 c0 -2 -7 -7 -16 -10 -8 -3
-12 -2 -9 4 6 10 25 14 25 6z m-80 -37 c-62 -29 -96 -42 -88 -33 12 12 102 52
118 53 8 0 -5 -9 -30 -20z m-319 -8 c-11 -7 -11 -9 0 -13 10 -3 9 -6 -2 -10
-10 -4 -16 0 -16 10 0 18 18 35 26 26 3 -3 -1 -9 -8 -13z m268 15 c-2 -2 -103
-47 -224 -101 -121 -53 -240 -105 -264 -117 -180 -82 -474 -209 -477 -205 -2
2 60 32 138 67 79 34 213 94 298 133 304 138 548 241 529 223z m-353 -73 c-11
-11 -19 6 -11 24 8 17 8 17 12 0 3 -10 2 -21 -1 -24z m294 17 c-8 -5 -19 -10
-25 -10 -5 0 -3 5 5 10 8 5 20 10 25 10 6 0 3 -5 -5 -10z m-80 -35 c-14 -8
-29 -14 -35 -14 -5 0 1 6 15 14 14 8 30 14 35 14 6 0 -1 -6 -15 -14z m-377
-45 c-3 -12 -8 -19 -11 -16 -5 6 5 36 12 36 2 0 2 -9 -1 -20z m307 16 c0 -2
-13 -9 -30 -15 -35 -12 -41 -5 -7 9 25 10 37 12 37 6z m-80 -36 c-8 -5 -19
-10 -25 -10 -5 0 -3 5 5 10 8 5 20 10 25 10 6 0 3 -5 -5 -10z m-296 -15 c3 -9
0 -15 -9 -15 -8 0 -15 7 -15 15 0 8 4 15 9 15 5 0 11 -7 15 -15z m-71 -29 c3
-8 -1 -17 -9 -20 -9 -4 -14 1 -14 14 0 23 15 27 23 6z m-73 -50 c-14 -14 -24
0 -16 21 6 15 8 15 16 3 6 -9 5 -19 0 -24z m-70 -6 c0 -5 -5 -10 -11 -10 -5 0
-7 5 -4 10 3 6 8 10 11 10 2 0 4 -4 4 -10z m240 -14 c0 -2 -7 -7 -16 -10 -8
-3 -12 -2 -9 4 6 10 25 14 25 6z m-308 -31 c0 -5 -5 -11 -11 -13 -6 -2 -11 4
-11 13 0 9 5 15 11 13 6 -2 11 -8 11 -13z m-63 -40 c-6 -6 -13 -5 -19 5 -6 9
-5 17 3 22 15 9 29 -14 16 -27z m-62 -15 c1 -11 -2 -20 -8 -20 -5 0 -9 9 -9
20 0 11 4 20 8 20 4 0 8 -9 9 -20z m-70 -42 c-3 -7 -5 -2 -5 12 0 14 2 19 5
13 2 -7 2 -19 0 -25z m-47 -19 c0 -5 -4 -9 -10 -9 -5 0 -10 7 -10 16 0 8 5 12
10 9 6 -3 10 -10 10 -16z m-66 -24 c3 -8 1 -15 -4 -15 -6 0 -10 7 -10 15 0 8
2 15 4 15 2 0 6 -7 10 -15z m191 5 c-3 -5 -11 -10 -16 -10 -6 0 -7 5 -4 10 3
6 11 10 16 10 6 0 7 -4 4 -10z m-245 -36 c0 -8 -4 -12 -10 -9 -5 3 -10 10 -10
16 0 5 5 9 10 9 6 0 10 -7 10 -16z m-53 -19 c0 -8 -4 -15 -9 -15 -4 0 -8 7 -8
15 0 8 4 15 8 15 5 0 9 -7 9 -15z m83 -40 c-14 -8 -29 -14 -35 -14 -5 0 1 6
15 14 14 8 30 14 35 14 6 0 -1 -6 -15 -14z"/>
<path d="M5330 4149 c-25 -11 -69 -30 -98 -41 -29 -11 -51 -22 -49 -24 4 -5
207 73 216 82 12 11 -29 1 -69 -17z"/>
<path d="M5336 4124 c-71 -28 -75 -31 -37 -30 16 1 27 5 24 10 -3 4 5 5 18 1
19 -5 21 -4 9 4 -13 9 -12 11 5 12 11 1 25 2 31 2 6 0 11 6 11 13 0 8 -1 14
-1 13 -1 0 -27 -11 -60 -25z"/>
<path d="M5230 4080 c-8 -5 -10 -10 -5 -10 6 0 17 5 25 10 8 5 11 10 5 10 -5
0 -17 -5 -25 -10z"/>
<path d="M5357 4061 c-21 -9 -35 -20 -31 -24 11 -11 26 -9 19 3 -3 6 5 10 19
10 14 0 28 5 31 11 11 17 2 17 -38 0z"/>
<path d="M5120 4060 c-8 -5 -10 -10 -5 -10 6 0 17 5 25 10 8 5 11 10 5 10 -5
0 -17 -5 -25 -10z"/>
<path d="M4922 3983 c-90 -36 -161 -67 -159 -69 4 -4 327 123 336 132 12 11
-28 -2 -177 -63z"/>
<path d="M5091 4026 c-39 -17 -49 -25 -36 -30 24 -9 27 -8 19 6 -5 8 -2 9 12
4 10 -4 15 -4 10 1 -4 4 10 15 31 25 21 9 34 17 28 17 -5 0 -34 -10 -64 -23z"/>
<path d="M5285 4030 c-3 -5 -15 -10 -26 -10 -10 0 -19 -5 -19 -11 0 -5 -5 -7
-12 -3 -6 4 -8 3 -5 -4 5 -7 17 -7 42 1 19 5 31 15 28 20 -4 6 0 8 11 4 10 -4
15 -3 11 3 -8 13 -22 13 -30 0z"/>
<path d="M5245 3958 c-71 -27 -135 -54 -142 -60 -16 -13 -17 -32 -1 -22 7 4 8
3 4 -4 -4 -6 -13 -9 -20 -6 -8 3 -17 1 -21 -5 -3 -7 2 -11 14 -11 22 0 28 -14
11 -25 -19 -12 -59 6 -57 26 1 10 7 19 14 19 7 0 13 5 13 10 0 13 -13 13 -25
1 -6 -6 -22 -12 -37 -15 -41 -7 -50 -15 -35 -30 6 -8 24 -12 39 -10 15 1 30
-1 33 -7 4 -5 22 -9 41 -9 21 0 33 -4 29 -10 -3 -5 -17 -10 -30 -10 -36 0 -40
-18 -4 -22 l32 -3 -35 -15 c-33 -15 -34 -15 -36 6 -2 27 -21 74 -21 55 -1 -8
-8 -23 -18 -33 -9 -10 -13 -21 -9 -25 4 -4 11 -1 16 7 5 8 12 12 15 8 8 -8
-31 -48 -46 -48 -6 0 -9 7 -6 15 4 8 2 17 -3 20 -17 11 -11 23 15 29 14 4 25
11 25 17 0 6 -6 6 -19 -1 -28 -14 -31 -13 -32 13 0 12 -3 16 -6 10 -5 -15 -33
-18 -33 -4 0 5 6 12 13 14 7 3 6 6 -5 6 -9 1 -19 -3 -22 -8 -3 -4 -88 -39
-188 -76 -101 -37 -192 -70 -203 -75 -11 -4 -33 -12 -50 -18 -16 -5 -92 -35
-168 -66 -76 -30 -153 -58 -172 -62 -19 -3 -35 -10 -35 -15 0 -5 -9 -9 -20 -9
-11 0 -28 -4 -38 -9 -61 -32 -247 -101 -273 -101 -10 0 -19 -4 -19 -10 0 -5 4
-10 8 -10 5 0 18 -9 30 -20 l22 -21 23 22 22 21 -22 -7 c-13 -3 -23 -4 -23 0
0 9 72 37 98 37 12 0 22 4 22 8 0 5 16 14 36 20 19 7 38 18 41 26 6 16 76 15
90 -1 5 -4 3 -5 -4 -1 -7 4 -17 -2 -23 -14 -6 -11 -16 -20 -23 -20 -9 0 -9 3
1 9 11 6 11 10 0 19 -8 6 -18 8 -23 4 -14 -10 -17 -32 -5 -32 5 0 6 -7 3 -17
-4 -11 -3 -14 5 -9 15 9 52 16 52 11 0 -3 -16 -11 -36 -20 -34 -14 -41 -41 -7
-28 13 5 15 2 9 -20 -3 -14 -2 -29 4 -32 5 -3 10 -1 10 5 0 6 5 8 10 5 6 -3
10 -1 10 4 0 6 7 11 16 11 12 0 15 6 10 25 -5 19 -2 25 10 25 14 0 16 -8 12
-44 -5 -37 -2 -45 13 -49 17 -5 19 1 19 43 0 32 6 54 17 65 11 12 13 19 5 24
-6 3 -9 15 -7 26 2 11 4 23 4 26 1 4 15 12 31 19 17 7 33 16 36 21 2 5 -11 2
-31 -6 -31 -14 -50 -6 -25 10 16 10 143 57 170 62 14 3 38 17 53 29 30 25 40
27 72 14 17 -7 18 -9 4 -15 -20 -8 -21 -58 -1 -50 6 2 12 0 12 -5 0 -9 -15
-14 -22 -8 -2 1 -14 -5 -28 -12 -14 -8 -31 -14 -39 -15 -8 0 -17 -7 -19 -15
-5 -13 -3 -13 11 -1 10 7 18 11 18 7 1 -3 2 -10 3 -15 0 -5 5 -13 10 -18 5 -4
7 -4 4 2 -8 14 19 38 27 24 4 -5 2 -15 -4 -22 -5 -7 -6 -19 -2 -26 6 -9 10
-10 15 -2 4 6 12 9 17 6 5 -4 9 -1 9 4 0 6 6 11 14 11 17 0 41 28 32 37 -3 4
-12 1 -18 -5 -15 -15 -48 -16 -48 -2 0 10 14 14 38 11 6 -1 12 3 12 9 0 5 8
10 18 10 14 0 19 -9 20 -38 2 -33 -1 -39 -25 -49 l-28 -12 28 6 c15 3 34 0 42
-7 13 -11 15 -6 15 31 0 24 4 60 10 78 5 19 11 49 12 67 2 29 8 36 48 54 25
12 34 18 20 15 -63 -16 -75 -18 -65 -7 10 11 109 51 194 78 25 8 59 22 76 32
20 12 38 16 50 11 18 -7 18 -8 2 -8 -11 -1 -17 -6 -14 -13 2 -7 11 -12 18 -10
11 3 12 1 2 -9 -18 -18 -16 -30 2 -23 22 9 18 -5 -7 -26 -13 -10 -20 -22 -16
-26 4 -4 14 -1 23 6 13 11 14 10 9 -3 -4 -13 -1 -15 18 -12 l23 4 -24 -20
c-27 -22 -20 -39 9 -21 14 9 20 9 23 -1 3 -7 6 -1 6 14 1 14 -5 31 -11 38 -11
10 -10 11 5 6 11 -5 17 -2 17 6 0 12 2 12 9 0 7 -11 11 -9 21 9 10 18 14 20
21 9 6 -10 9 -11 9 -1 0 27 18 10 29 -29 14 -46 6 -59 -36 -59 -12 0 -24 -3
-27 -8 -2 -4 13 -6 34 -4 37 4 39 3 42 -30 2 -18 7 13 11 70 5 56 12 102 16
102 4 0 8 12 9 28 6 68 3 65 116 106 10 3 17 9 14 12 -3 2 -31 -5 -62 -16 -65
-25 -101 -21 -42 4 21 9 44 16 52 16 7 0 15 4 18 9 3 4 24 11 46 15 22 3 40
11 40 16 0 6 7 10 16 10 8 0 12 -4 9 -10 -11 -18 7 -10 26 12 22 24 25 48 7
47 -7 0 -71 -23 -143 -51z m-112 -173 c-3 -9 -8 -14 -10 -11 -3 3 -2 9 2 15 9
16 15 13 8 -4z m-596 -119 c-4 -9 1 -16 11 -19 15 -4 15 -5 -1 -12 -11 -4 -23
-3 -29 3 -13 13 -4 42 13 42 6 0 9 -6 6 -14z m-32 -46 c-4 -6 8 -11 27 -11 30
-2 31 -2 6 -6 -16 -2 -28 -9 -28 -14 0 -5 12 -9 28 -10 l27 -1 -30 -13 c-35
-15 -36 -15 -40 22 -3 27 1 43 11 43 3 0 2 -4 -1 -10z m-400 -148 c-11 -11
-25 15 -19 33 7 17 8 16 16 -5 5 -13 6 -25 3 -28z m21 -21 c-7 -11 -56 -21
-56 -10 0 4 8 10 18 12 30 8 43 7 38 -2z m-11 -31 c-3 -5 -15 -10 -26 -10 -11
0 -17 5 -14 10 3 6 15 10 26 10 11 0 17 -4 14 -10z m-50 -59 c-3 -6 -11 -8
-17 -5 -6 4 -5 9 3 15 16 10 23 4 14 -10z"/>
<path d="M4977 3982 c-21 -10 -35 -21 -30 -26 4 -5 -1 -6 -12 -2 -26 7 -54 -8
-30 -17 10 -4 14 -3 9 4 -4 7 0 9 14 5 12 -4 24 -2 29 6 4 7 24 21 43 30 46
22 26 22 -23 0z"/>
<path d="M5150 3980 c-8 -5 -10 -10 -5 -10 6 0 17 5 25 10 8 5 11 10 5 10 -5
0 -17 -5 -25 -10z"/>
<path d="M5037 3935 c-15 -8 -31 -15 -35 -16 -28 -7 -62 -22 -59 -25 2 -3 17
1 33 7 16 7 32 13 37 14 4 2 8 3 10 5 1 1 10 3 21 5 20 4 46 25 31 25 -6 0
-22 -7 -38 -15z"/>
<path d="M5360 3919 c0 -5 9 -9 20 -9 11 0 20 2 20 4 0 2 -9 6 -20 9 -11 3
-20 1 -20 -4z"/>
<path d="M4810 3910 c-13 -8 -12 -10 3 -10 9 0 17 5 17 10 0 12 -1 12 -20 0z"/>
<path d="M4652 3873 c-35 -14 -61 -27 -59 -29 3 -4 128 44 136 52 10 10 -19 1
-77 -23z"/>
<path d="M4770 3896 c0 -2 7 -7 16 -10 8 -3 12 -2 9 4 -6 10 -25 14 -25 6z"/>
<path d="M4706 3871 c-34 -15 -37 -18 -21 -25 11 -4 16 -4 12 0 -4 4 10 15 30
25 49 23 30 23 -21 0z"/>
<path d="M4896 3881 c-4 -5 1 -8 9 -7 21 3 31 16 12 16 -9 0 -18 -4 -21 -9z"/>
<path d="M4820 3850 c-18 -12 -2 -12 25 0 13 6 15 9 5 9 -8 0 -22 -4 -30 -9z"/>
<path d="M4503 3813 c-35 -15 -61 -28 -59 -30 5 -5 107 36 121 49 13 12 7 10
-62 -19z"/>
<path d="M4775 3830 c-19 -8 -19 -9 3 -9 12 -1 22 4 22 9 0 6 -1 10 -2 9 -2 0
-12 -4 -23 -9z"/>
<path d="M5210 3805 c-33 -19 -21 -19 21 0 19 8 27 14 19 14 -8 0 -26 -6 -40
-14z"/>
<path d="M3330 3797 c0 -9 -6 -20 -14 -24 -7 -4 -20 -21 -29 -38 -12 -22 -16
-25 -17 -11 0 12 -5 16 -16 12 -9 -3 -22 -6 -29 -6 -8 0 -21 -7 -29 -16 -15
-14 -16 -13 -16 7 0 17 -3 20 -11 12 -24 -24 17 -82 95 -135 5 -3 2 -13 -8
-23 -12 -13 -15 -26 -10 -52 5 -24 3 -34 -4 -30 -5 4 -13 0 -16 -9 -3 -8 -10
-12 -16 -9 -5 3 -10 2 -10 -3 0 -5 -14 -6 -32 -4 -31 5 -31 5 -9 14 19 6 22
13 17 33 -5 20 -3 25 11 25 17 1 17 1 1 11 -10 5 -18 16 -18 22 0 7 -14 18
-30 24 -17 6 -28 7 -24 2 3 -5 -4 -9 -15 -9 -25 0 -27 13 -5 34 16 17 44 22
44 8 0 -9 50 -35 56 -29 6 6 -8 47 -17 47 -5 0 -18 18 -29 40 -19 38 -40 53
-40 29 0 -18 -24 -35 -47 -35 -14 0 -23 6 -23 15 0 12 -3 12 -12 3 -19 -19
-28 -14 -28 12 0 14 -4 28 -10 31 -5 3 -10 -1 -10 -9 0 -24 -31 -96 -41 -96
-5 0 -9 14 -9 31 0 24 -4 30 -15 25 -11 -4 -15 2 -16 22 l0 27 -12 -24 c-10
-21 -8 -26 9 -38 15 -9 20 -21 16 -38 -6 -32 -20 -32 -32 0 -19 51 -90 102
-75 55 8 -24 -7 -26 -26 -4 -10 13 -10 17 0 23 9 6 5 10 -12 15 -29 7 -60 -2
-51 -15 9 -16 -14 -10 -31 8 -14 13 -18 14 -25 3 -5 -8 -7 -17 -4 -21 2 -4 0
-10 -5 -13 -6 -4 -8 12 -7 39 3 38 1 45 -13 43 -10 -2 -15 -11 -12 -23 8 -42
5 -50 -16 -53 -15 -2 -23 -10 -23 -23 0 -10 -7 -19 -15 -19 -8 0 -15 -5 -15
-12 0 -6 -8 -4 -19 6 -18 16 -19 16 -25 -9 -4 -14 -4 -30 -1 -34 2 -5 -2 -14
-11 -21 -10 -9 -13 -22 -9 -42 5 -21 3 -28 -8 -28 -9 0 -18 6 -20 13 -3 6 -6
2 -6 -9 -1 -16 -7 -22 -24 -20 -17 1 -23 6 -19 19 5 20 -19 23 -51 5 l-22 -12
25 -7 c25 -7 25 -7 -7 -19 -27 -10 -33 -17 -33 -41 0 -20 -5 -29 -16 -29 -14
0 -14 3 -4 15 17 21 -6 21 -27 0 -8 -8 -19 -12 -25 -9 -8 5 -9 -4 -5 -27 3
-19 3 -28 0 -21 -4 10 -8 10 -19 1 -10 -8 -14 -8 -14 0 0 6 5 11 10 11 6 0 10
7 10 16 0 14 -1 14 -16 0 -20 -21 -33 -20 -29 2 1 9 0 11 -2 4 -3 -7 -10 -9
-16 -5 -7 3 -3 -4 8 -17 39 -46 80 -79 98 -80 16 0 22 -17 17 -49 -1 -10 6
-12 23 -7 19 4 26 0 35 -20 7 -14 12 -34 12 -44 0 -24 48 -40 60 -20 4 7 13 9
20 5 23 -14 87 -6 121 14 19 12 42 24 52 28 15 4 16 8 5 14 -9 6 -5 9 14 9 15
0 29 4 32 9 3 4 34 14 68 21 35 7 74 14 88 17 14 3 30 5 35 4 42 -6 295 -4
295 2 0 11 35 8 47 -4 16 -16 33 -2 33 25 0 23 17 46 34 46 6 0 5 -5 -2 -12
-16 -16 -16 -71 1 -65 6 2 12 14 11 26 0 17 5 21 28 21 25 0 28 3 23 21 -6 17
-3 20 11 17 15 -3 18 -11 16 -41 -2 -21 2 -44 8 -52 6 -8 9 -18 7 -22 -3 -5 3
-24 12 -44 10 -20 24 -65 32 -99 11 -49 23 -74 56 -110 23 -26 40 -50 37 -52
-2 -3 11 -21 31 -41 19 -19 35 -46 36 -59 1 -20 2 -20 9 6 5 16 7 33 4 37 -3
5 0 28 7 51 7 24 16 77 20 118 9 79 12 96 23 120 5 13 14 65 15 98 1 19 21 14
22 -5 1 -12 4 -10 9 7 13 41 11 47 -19 60 -31 12 -53 7 -50 -13 4 -22 -13 -46
-27 -40 -8 3 -14 10 -14 17 0 6 -14 26 -30 45 -30 34 -37 51 -22 51 4 0 8 15
8 34 0 18 8 41 17 50 9 10 17 23 16 29 0 9 -2 8 -6 0 -2 -7 -9 -13 -14 -13 -6
0 -6 7 0 18 6 12 6 23 0 33 -8 12 -12 11 -26 -6 l-17 -21 -25 24 c-19 17 -24
32 -23 58 2 19 -1 34 -5 33 -25 -4 -33 5 -40 43 -3 24 -8 37 -11 30 -2 -6 -8
-10 -13 -6 -5 3 -12 -2 -15 -10 -7 -19 -30 -21 -37 -3 -4 10 -6 10 -6 0 -1 -7
-5 -13 -11 -13 -15 0 -12 46 4 59 15 13 30 60 21 69 -3 3 -5 -2 -5 -11z m-550
-127 c0 -5 -7 -10 -15 -10 -8 0 -15 5 -15 10 0 6 7 10 15 10 8 0 15 -4 15 -10z
m220 0 c0 -5 -5 -10 -11 -10 -5 0 -7 5 -4 10 3 6 8 10 11 10 2 0 4 -4 4 -10z
m-320 -19 c0 -14 -6 -19 -20 -18 -12 1 -20 8 -20 19 0 11 7 18 20 18 13 0 20
-7 20 -19z m175 -26 c19 -19 35 -40 35 -47 0 -7 -7 -2 -16 11 -15 20 -18 21
-26 8 -12 -22 -38 -10 -35 16 1 13 -3 21 -10 20 -14 -3 -17 9 -6 20 12 13 23
7 58 -28z m85 -16 c0 -6 -4 -7 -10 -4 -5 3 -10 11 -10 16 0 6 5 7 10 4 6 -3
10 -11 10 -16z m-150 -19 c-19 -13 -30 -13 -30 0 0 6 10 10 23 10 18 0 19 -2
7 -10z m22 -32 c-9 -9 -15 -9 -24 0 -9 9 -7 12 12 12 19 0 21 -3 12 -12z m296
0 c-2 -7 5 -12 14 -13 34 0 13 -20 -22 -21 -59 -1 -124 -15 -142 -31 -15 -13
-16 -13 -11 6 5 19 27 32 63 36 8 1 26 7 40 12 24 10 52 21 58 22 1 1 1 -4 0
-11z m-454 -23 c-4 -8 -10 -12 -15 -9 -11 6 -2 24 11 24 5 0 7 -7 4 -15z m-64
-55 c0 -5 -5 -10 -11 -10 -5 0 -7 5 -4 10 3 6 8 10 11 10 2 0 4 -4 4 -10z
m303 -5 c-3 -9 -8 -14 -10 -11 -3 3 -2 9 2 15 9 16 15 13 8 -4z m-283 -54 c0
-4 -18 -5 -40 -3 -22 2 -38 7 -36 11 6 9 76 1 76 -8z m429 -23 c-8 -14 -14
-18 -17 -10 -4 13 17 46 25 38 3 -2 -1 -15 -8 -28z m187 1 c24 -27 9 -36 -25
-16 -16 9 -39 17 -50 17 -28 0 -27 18 2 22 32 5 53 -1 73 -23z m-781 -29 c4
-6 -6 -10 -22 -10 -22 0 -25 2 -13 10 19 12 27 12 35 0z m975 -6 c0 -8 -4 -12
-10 -9 -5 3 -10 10 -10 16 0 5 5 9 10 9 6 0 10 -7 10 -16z m-27 -37 c3 -7 -3
-13 -13 -13 -10 0 -16 6 -13 13 3 7 9 13 13 13 4 0 10 -6 13 -13z m17 -52 c0
-8 -4 -15 -10 -15 -5 0 -10 7 -10 15 0 8 5 15 10 15 6 0 10 -7 10 -15z"/>
<path d="M4602 3767 c-56 -22 -101 -42 -99 -44 7 -6 123 35 173 61 69 36 45
30 -74 -17z"/>
<path d="M2985 3789 c-11 -17 1 -21 15 -4 8 9 8 15 2 15 -6 0 -14 -5 -17 -11z"/>
<path d="M2797 3777 c-4 -11 4 -25 24 -42 31 -26 49 -25 49 1 0 17 -16 19 -23
2 -3 -7 -6 -3 -6 10 -1 12 -7 22 -15 22 -8 0 -16 5 -18 12 -3 8 -7 6 -11 -5z"/>
<path d="M3200 3781 c0 -16 41 -24 54 -11 8 10 6 11 -11 5 -14 -4 -23 -2 -23
4 0 6 -4 11 -10 11 -5 0 -10 -4 -10 -9z"/>
<path d="M4490 3780 c-18 -12 -2 -12 25 0 13 6 15 9 5 9 -8 0 -22 -4 -30 -9z"/>
<path d="M4400 3770 c-8 -5 -10 -10 -5 -10 6 0 17 5 25 10 8 5 11 10 5 10 -5
0 -17 -5 -25 -10z"/>
<path d="M4865 3760 c-8 -13 5 -13 25 0 13 8 13 10 -2 10 -9 0 -20 -4 -23 -10z"/>
<path d="M4802 3738 c-16 -16 -15 -38 2 -38 9 0 13 -10 11 -29 -2 -29 -2 -29
20 -15 12 8 25 11 30 7 4 -5 5 -2 1 5 -5 7 -1 12 11 13 10 0 13 3 6 5 -7 3
-21 0 -32 -5 -13 -7 -22 -8 -26 -1 -3 5 -1 10 4 10 6 0 11 7 11 15 0 9 -6 12
-15 9 -8 -4 -15 -2 -15 4 0 6 5 12 12 14 8 3 8 7 2 11 -6 3 -16 1 -22 -5z"/>
<path d="M2595 3730 c-3 -5 -1 -10 4 -10 6 0 11 5 11 10 0 6 -2 10 -4 10 -3 0
-8 -4 -11 -10z"/>
<path d="M5330 3721 c-25 -10 -61 -24 -82 -31 l-36 -13 28 -36 c24 -30 29 -47
32 -104 3 -58 1 -67 -14 -67 -22 0 -22 -8 -4 -46 8 -16 13 -47 12 -69 -2 -22
-3 -63 -4 -91 l-2 -51 -55 -12 c-30 -7 -55 -17 -55 -22 0 -12 12 -11 62 5 24
7 70 19 103 26 72 16 109 34 50 25 -22 -4 -50 -9 -63 -12 l-23 -6 7 94 c7 102
17 139 35 139 7 0 10 2 7 5 -3 3 -17 1 -32 -4 -14 -6 -26 -7 -26 -3 0 4 18 13
40 20 45 14 76 15 45 2 l-20 -9 20 0 c11 0 27 4 35 9 13 9 13 10 0 10 -13 0
-13 1 0 11 15 11 -14 8 -72 -6 -23 -6 -24 -5 -21 44 7 96 17 136 37 139 10 2
16 0 13 -5 -3 -4 -1 -26 3 -48 l8 -40 1 52 c1 42 5 53 21 58 13 4 20 15 20 31
0 28 -9 28 -70 5z"/>
<path d="M3341 3714 c0 -11 3 -14 6 -6 3 7 2 16 -1 19 -3 4 -6 -2 -5 -13z"/>
<path d="M4438 3703 c-10 -2 -18 -9 -18 -14 0 -6 10 -5 23 2 37 20 36 23 -5
12z"/>
<path d="M5031 3681 c-13 -10 -19 -21 -14 -24 10 -7 50 29 42 37 -2 3 -15 -3
-28 -13z"/>
<path d="M4385 3680 c-3 -5 -2 -10 4 -10 5 0 13 5 16 10 3 6 2 10 -4 10 -5 0
-13 -4 -16 -10z"/>
<path d="M5085 3660 c-3 -5 -1 -10 4 -10 6 0 11 5 11 10 0 6 -2 10 -4 10 -3 0
-8 -4 -11 -10z"/>
<path d="M4110 3650 c-18 -12 -2 -12 25 0 13 6 15 9 5 9 -8 0 -22 -4 -30 -9z"/>
<path d="M4030 3620 c-8 -5 -10 -10 -5 -10 6 0 17 5 25 10 8 5 11 10 5 10 -5
0 -17 -5 -25 -10z"/>
<path d="M4651 3616 c-13 -7 -20 -16 -15 -18 13 -8 54 9 54 22 0 13 -10 12
-39 -4z"/>
<path d="M4181 3604 c-18 -8 -31 -17 -28 -20 5 -6 67 23 67 31 0 6 3 7 -39
-11z"/>
<path d="M4423 3613 c4 -3 2 -12 -4 -20 -9 -10 -8 -13 5 -13 9 0 16 8 16 20 0
11 -5 20 -12 20 -6 0 -8 -3 -5 -7z"/>
<path d="M2425 3600 c3 -5 11 -10 16 -10 6 0 7 5 4 10 -3 6 -11 10 -16 10 -6
0 -7 -4 -4 -10z"/>
<path d="M4941 3584 c0 -11 3 -14 6 -6 3 7 2 16 -1 19 -3 4 -6 -2 -5 -13z"/>
<path d="M3940 3580 c-9 -6 -10 -10 -3 -10 6 0 15 5 18 10 8 12 4 12 -15 0z"/>
<path d="M4350 3573 c-45 -14 -60 -28 -60 -52 1 -23 2 -24 11 -8 20 33 31 18
27 -38 -1 -30 0 -55 5 -55 4 0 7 24 7 53 0 37 3 48 10 37 8 -12 10 -11 10 8 0
15 -6 22 -20 22 -11 0 -20 5 -20 10 0 6 8 10 18 10 9 0 24 5 32 10 16 10 6 12
-20 3z"/>
<path d="M4870 3570 c-8 -5 -44 -18 -80 -29 -129 -40 -143 -46 -126 -60 27
-23 46 -73 46 -123 0 -36 -4 -48 -15 -48 -8 0 -15 -7 -15 -15 0 -8 5 -15 10
-15 6 0 10 -40 10 -100 l0 -99 -37 -10 c-21 -6 -44 -11 -50 -11 -7 0 -13 -5
-13 -11 0 -7 7 -8 18 -4 18 7 211 53 242 58 11 2 23 7 27 12 9 8 -17 5 -112
-18 l-60 -14 3 76 c2 42 9 95 17 119 11 33 11 42 1 42 -9 0 -10 18 -4 77 8 76
28 125 28 69 0 -15 4 -25 10 -21 6 3 10 15 10 26 0 20 34 39 69 39 14 0 17 -6
14 -27 -2 -16 6 -5 18 25 21 54 17 77 -11 62z m-143 -276 c-3 -3 -12 -4 -19
-1 -8 3 -5 6 6 6 11 1 17 -2 13 -5z"/>
<path d="M4088 3563 c7 -3 16 -2 19 1 4 3 -2 6 -13 5 -11 0 -14 -3 -6 -6z"/>
<path d="M4410 3560 c0 -5 4 -10 9 -10 6 0 13 5 16 10 3 6 -1 10 -9 10 -9 0
-16 -4 -16 -10z"/>
<path d="M2418 3553 c7 -3 16 -2 19 1 4 3 -2 6 -13 5 -11 0 -14 -3 -6 -6z"/>
<path d="M3920 3550 c-18 -12 -2 -12 25 0 13 6 15 9 5 9 -8 0 -22 -4 -30 -9z"/>
<path d="M3830 3535 c-33 -19 -21 -19 21 0 19 8 27 14 19 14 -8 0 -26 -6 -40
-14z"/>
<path d="M3960 3514 l-25 -15 25 7 c14 3 29 10 35 15 15 14 -7 10 -35 -7z"/>
<path d="M4932 3505 c0 -16 2 -22 5 -12 2 9 2 23 0 30 -3 6 -5 -1 -5 -18z"/>
<path d="M2260 3487 c0 -10 8 -17 18 -17 9 0 13 4 7 8 -5 4 -13 11 -17 16 -5
5 -8 2 -8 -7z"/>
<path d="M3845 3470 c-22 -11 -33 -19 -25 -19 8 0 31 8 50 19 46 25 27 25 -25
0z"/>
<path d="M4203 3454 c-18 -19 -16 -23 7 -17 20 5 26 18 13 26 -5 3 -14 -1 -20
-9z"/>
<path d="M4863 3410 c0 -25 2 -35 4 -22 2 12 2 32 0 45 -2 12 -4 2 -4 -23z"/>
<path d="M4541 3424 c0 -11 3 -14 6 -6 3 7 2 16 -1 19 -3 4 -6 -2 -5 -13z"/>
<path d="M3928 3414 c-29 -15 -39 -38 -13 -28 8 4 15 1 15 -5 0 -6 5 -11 11
-11 6 0 9 8 7 18 -2 9 5 22 17 29 30 18 -4 16 -37 -3z"/>
<path d="M4425 3420 c3 -5 12 -7 20 -3 21 7 19 13 -6 13 -11 0 -18 -4 -14 -10z"/>
<path d="M4355 3403 c-74 -17 -186 -73 -145 -73 14 0 31 -37 32 -71 1 -16 5
-32 11 -36 5 -3 3 -9 -4 -14 -11 -7 -11 -9 -1 -9 7 0 10 -5 7 -10 -4 -6 -11
-8 -16 -5 -5 4 -9 -5 -9 -19 0 -14 4 -27 10 -31 5 -3 8 -37 7 -75 -1 -39 1
-70 5 -70 9 0 18 86 22 212 4 110 11 142 27 117 6 -10 9 -8 9 9 0 14 6 22 18
22 10 0 23 5 30 12 9 9 13 7 18 -7 7 -18 8 -18 15 1 19 48 11 58 -36 47z"/>
<path d="M5095 3280 c-4 -67 -5 -124 -2 -126 3 -3 8 49 12 116 4 67 5 123 2
126 -2 3 -8 -50 -12 -116z"/>
<path d="M4835 3345 c-16 -8 -40 -14 -52 -15 -16 0 -23 -6 -23 -20 0 -14 5
-18 16 -13 13 5 13 8 2 15 -8 6 1 8 27 4 25 -3 33 -2 21 3 -19 7 -18 8 4 14
15 4 27 1 32 -6 6 -9 10 -8 17 3 10 14 6 31 -7 29 -4 0 -20 -7 -37 -14z"/>
<path d="M3310 3285 c0 -13 9 -39 20 -57 l20 -33 0 28 c0 26 -25 87 -35 87 -3
0 -5 -11 -5 -25z"/>
<path d="M3750 3268 c0 -6 -7 -20 -17 -30 -9 -10 -13 -21 -9 -26 9 -9 46 35
46 54 0 8 -4 14 -10 14 -5 0 -10 -5 -10 -12z"/>
<path d="M3920 3259 c-30 -12 -63 -23 -72 -26 -18 -5 -25 -23 -10 -23 23 0 44
-114 25 -133 -3 -4 -7 -48 -7 -99 l-1 -91 -32 -11 c-40 -14 -48 -22 -28 -30 9
-3 14 -2 10 3 -5 9 47 23 135 37 22 4 40 11 40 16 0 6 -6 8 -14 5 -8 -3 -30
-9 -50 -12 l-35 -7 5 59 c3 32 6 68 8 80 2 12 -2 24 -8 27 -7 3 -8 7 -1 13 6
4 10 26 11 48 1 65 12 94 44 110 16 8 31 15 34 15 3 0 7 -19 9 -42 3 -34 4
-30 5 20 1 34 -1 62 -5 62 -5 -1 -33 -10 -63 -21z"/>
<path d="M2219 3219 c-7 -4 -18 -5 -24 -3 -12 5 -61 -92 -71 -142 -5 -25 -20
-36 -124 -86 -102 -49 -118 -60 -113 -78 9 -35 -5 -67 -36 -80 -26 -10 -28
-15 -20 -34 11 -24 66 -59 74 -47 3 5 17 12 32 16 16 3 55 18 88 32 33 14 83
34 110 46 28 12 59 29 71 39 11 10 25 18 32 18 6 0 14 5 18 12 5 7 2 9 -7 6
-53 -22 -51 -22 -41 -2 27 52 48 124 37 124 -4 0 -15 -5 -26 -10 -10 -6 -19
-8 -19 -5 0 3 16 13 35 21 19 8 35 18 35 24 0 5 -16 2 -35 -6 -19 -8 -35 -11
-35 -8 0 12 34 33 53 34 17 0 47 53 47 83 0 36 -51 65 -81 46z m-19 -273 c0
-2 -9 -6 -20 -9 -11 -3 -18 -1 -14 4 5 9 34 13 34 5z m-115 -46 c-3 -5 -12
-10 -18 -10 -7 0 -6 4 3 10 19 12 23 12 15 0z m-110 -50 c-3 -5 -12 -10 -18
-10 -7 0 -6 4 3 10 19 12 23 12 15 0z"/>
<path d="M4370 3209 c0 -5 5 -7 10 -4 6 3 10 8 10 11 0 2 -4 4 -10 4 -5 0 -10
-5 -10 -11z"/>
<path d="M4325 3203 c-27 -7 -39 -19 -26 -27 6 -4 11 -3 11 2 0 5 12 7 28 5
19 -3 23 -2 13 5 -11 8 -11 10 0 15 17 7 2 6 -26 0z"/>
<path d="M5338 3193 c7 -3 16 -2 19 1 4 3 -2 6 -13 5 -11 0 -14 -3 -6 -6z"/>
<path d="M5288 3183 c7 -3 16 -2 19 1 4 3 -2 6 -13 5 -11 0 -14 -3 -6 -6z"/>
<path d="M5198 3163 c6 -2 18 -2 25 0 6 3 1 5 -13 5 -14 0 -19 -2 -12 -5z"/>
<path d="M3763 3115 c0 -27 2 -38 4 -22 2 15 2 37 0 50 -2 12 -4 0 -4 -28z"/>
<path d="M5290 3118 c-97 -20 -146 -43 -80 -36 31 3 35 1 32 -19 -2 -16 3 -22
20 -25 29 -4 25 -23 -5 -23 -25 0 -30 -27 -15 -82 8 -29 13 -33 31 -27 16 5
11 -3 -18 -32 -22 -21 -43 -37 -47 -36 -5 1 -8 -3 -8 -8 0 -5 3 -10 8 -10 12
1 52 37 52 48 0 5 11 12 25 14 13 3 24 2 23 -1 -2 -19 4 -30 20 -34 13 -4 12
-5 -5 -6 -12 0 -25 -6 -28 -11 -4 -6 -11 -8 -16 -5 -5 4 -12 -1 -15 -9 -3 -9
-11 -13 -18 -9 -6 3 -8 3 -4 -2 5 -5 -4 -24 -19 -44 -15 -20 -20 -30 -12 -24
9 7 20 9 24 5 5 -4 5 -2 1 5 -3 7 2 14 14 18 11 4 18 9 16 13 -2 4 8 8 22 9
25 1 25 1 -10 -30 -51 -46 -85 -107 -59 -107 5 0 11 10 15 22 4 16 8 20 16 12
8 -8 8 -24 1 -55 -5 -24 -13 -61 -16 -82 -5 -28 -10 -37 -21 -33 -8 3 -14 1
-14 -4 0 -6 6 -10 13 -10 8 0 7 -4 -3 -10 -11 -7 -17 -4 -22 13 l-6 22 -7 -22
c-6 -20 -14 -23 -61 -23 -30 0 -54 -4 -54 -8 0 -4 36 -7 80 -6 44 1 82 -2 85
-7 4 -5 -9 -10 -27 -10 l-33 -1 30 -7 c35 -7 34 16 17 -296 -6 -115 -15 -221
-21 -235 -8 -21 -10 -22 -11 -5 0 17 -2 18 -11 5 -8 -11 -9 -6 -5 20 5 26 4
30 -3 15 -12 -26 -14 -95 -2 -76 6 9 10 10 12 2 3 -8 39 -11 119 -9 l115 3
-95 12 -95 12 93 -5 c62 -4 92 -2 92 5 0 7 -33 11 -92 11 l-93 0 6 140 c3 77
9 143 13 147 4 4 6 -56 4 -135 -2 -78 0 -142 3 -142 3 0 9 59 11 132 5 110 9
134 23 145 10 7 22 10 26 7 5 -3 9 4 9 15 0 18 6 21 47 21 25 0 44 3 40 6 -3
3 -43 6 -88 5 l-82 -1 6 68 c4 37 7 82 7 101 0 19 3 32 6 28 3 -3 6 -48 6 -99
0 -75 2 -85 8 -53 5 22 9 64 9 93 1 43 5 58 24 73 12 10 27 18 32 19 6 0 10
-41 9 -107 l-1 -108 6 102 c3 56 8 104 11 107 3 3 17 10 30 16 20 8 6 10 -60
6 -50 -2 -77 0 -65 4 11 5 40 9 65 10 25 1 54 5 65 10 13 6 -5 8 -55 7 -71 -2
-75 -1 -76 21 -1 18 -1 19 3 2 7 -31 23 -24 23 10 0 17 7 44 15 60 8 16 12 37
8 47 -6 16 -5 16 10 4 14 -11 17 -11 17 1 0 8 16 31 35 52 35 38 47 86 23 86
-9 0 -8 4 2 11 10 7 11 12 4 15 -48 20 -54 53 -11 55 l22 0 -22 9 c-21 9 -21
11 -8 37 8 15 15 45 15 65 0 45 -38 114 -53 99 -14 -14 -27 -14 -27 -1 0 6 20
15 45 22 25 7 45 16 45 20 0 10 7 10 -110 -14z m4 -33 c-4 -9 0 -15 7 -16 8
-1 3 -4 -11 -8 -35 -11 -45 -2 -23 19 22 23 34 25 27 5z m24 -91 c4 -4 0 -5
-9 -1 -16 5 -39 -9 -39 -25 0 -5 17 -6 38 -3 20 3 30 2 22 -2 -8 -3 -21 -14
-28 -25 -16 -22 -34 -24 -26 -3 4 8 2 15 -4 15 -6 0 -12 -6 -15 -12 -2 -7 -4
5 -4 27 1 39 2 41 30 39 15 -1 31 -6 35 -10z m28 -94 c-18 -31 -25 -38 -23
-22 1 12 5 22 9 22 4 0 8 11 8 23 0 13 3 27 8 31 4 4 8 12 8 17 5 38 8 39 11
8 3 -24 -4 -49 -21 -79z m4 -84 c-7 -7 -14 -6 -21 1 -9 9 -7 12 9 10 14 -1 18
-5 12 -11z m-57 -593 c-7 -2 -19 -2 -25 0 -7 3 -2 5 12 5 14 0 19 -2 13 -5z"/>
<path d="M5092 3100 c0 -19 2 -27 5 -17 2 9 2 25 0 35 -3 9 -5 1 -5 -18z"/>
<path d="M3933 3093 c-13 -2 -23 -8 -23 -12 0 -5 11 -6 25 -3 14 2 25 8 25 13
0 5 -1 8 -2 8 -2 -1 -13 -4 -25 -6z"/>
<path d="M2329 3060 c-4 -8 -9 -12 -9 -8 0 4 -10 0 -21 -10 -47 -38 -48 -41
-38 -74 5 -18 9 -47 9 -64 0 -19 6 -34 15 -38 17 -6 21 -46 5 -46 -17 0 -11
-37 6 -44 10 -4 25 1 35 10 24 21 89 137 89 157 0 21 32 46 37 30 3 -7 11 -13
19 -13 7 0 16 -12 19 -27 13 -63 22 -79 53 -94 18 -10 28 -19 22 -21 -7 -2 10
-5 36 -6 26 -1 52 -6 56 -10 8 -8 31 -5 111 14 38 9 44 24 10 25 -15 0 -22 3
-15 6 6 2 12 9 12 14 0 6 -5 7 -10 4 -6 -4 -31 -9 -55 -11 -48 -6 -62 9 -20
20 14 4 23 11 20 16 -9 14 105 25 127 11 15 -9 20 -8 25 5 4 12 -3 25 -21 41
-15 13 -21 23 -14 23 8 0 19 -5 26 -12 6 -6 14 -9 18 -6 3 4 -8 14 -25 23 -17
8 -31 21 -31 28 -1 17 -73 62 -78 48 -5 -15 -18 -14 -36 5 -19 19 -80 20 -195
5 -66 -8 -87 -8 -99 2 -21 17 -72 15 -83 -3z m448 -36 c11 -3 23 -14 26 -25 4
-13 1 -17 -6 -12 -7 5 -21 8 -32 8 -11 0 -21 8 -23 18 -4 18 1 20 35 11z m1
-74 c12 -7 4 -8 -28 -4 -66 10 -97 26 -37 19 27 -2 56 -9 65 -15z"/>
<path d="M5143 3063 c-24 -5 -32 -23 -10 -23 24 0 57 12 57 21 0 9 -8 10 -47
2z"/>
<path d="M4122 3030 c0 -14 2 -19 5 -12 2 6 2 18 0 25 -3 6 -5 1 -5 -13z"/>
<path d="M4648 3033 c7 -3 16 -2 19 1 4 3 -2 6 -13 5 -11 0 -14 -3 -6 -6z"/>
<path d="M4778 3007 c-27 -6 -48 -15 -48 -20 0 -5 12 -6 26 -3 15 4 39 10 55
13 16 3 29 9 29 14 0 5 -3 8 -7 8 -5 -1 -29 -6 -55 -12z"/>
<path d="M4368 3005 c-2 -3 -49 -14 -103 -25 -55 -11 -104 -25 -110 -32 -7 -8
-3 -9 15 -4 14 3 69 16 123 28 53 12 97 26 97 30 0 9 -14 11 -22 3z"/>
<path d="M4865 3000 c-3 -6 5 -10 19 -10 14 0 28 5 31 10 3 6 -5 10 -19 10
-14 0 -28 -4 -31 -10z"/>
<path d="M4635 2970 c-3 -5 -3 -10 2 -11 4 0 -8 -7 -27 -14 -29 -11 -31 -14
-11 -14 13 -1 36 10 53 24 26 22 27 25 9 25 -11 0 -23 -4 -26 -10z"/>
<path d="M4716 2958 c3 -4 -7 -8 -21 -8 -15 0 -24 -4 -20 -10 10 -16 45 -12
70 8 l23 19 -28 0 c-16 0 -27 -4 -24 -9z"/>
<path d="M3761 2934 c0 -11 3 -14 6 -6 3 7 2 16 -1 19 -3 4 -6 -2 -5 -13z"/>
<path d="M4729 2898 c-1 -13 -2 -27 -4 -33 -1 -5 -3 -16 -3 -24 -1 -8 -10 -11
-22 -8 -13 3 -20 0 -20 -9 0 -20 37 -17 44 3 6 14 9 15 15 4 5 -8 9 6 9 38 0
49 -17 74 -19 29z"/>
<path d="M4771 2884 c-3 -106 -6 -124 -18 -124 -7 0 -10 -6 -7 -14 3 -8 12
-12 20 -9 8 3 14 0 14 -6 0 -6 -13 -11 -30 -11 -27 0 -29 3 -26 30 2 17 -1 33
-7 37 -6 3 -7 1 -3 -5 4 -7 2 -13 -3 -13 -6 -1 -15 -2 -20 -3 -5 0 -13 -5 -18
-10 -4 -5 -4 -7 2 -4 6 3 19 2 29 -1 18 -7 17 -10 -15 -41 -36 -35 -37 -34 34
-13 19 6 17 2 -12 -27 -29 -29 -61 -85 -61 -105 0 -3 8 -5 18 -3 15 3 17 -4
13 -47 -1 -27 -8 -53 -13 -56 -6 -4 -7 -12 -4 -18 5 -7 -3 -11 -21 -12 l-28
-1 29 -11 28 -12 -6 -115 c-14 -270 -26 -387 -36 -369 -7 11 -10 10 -16 -4
-15 -40 0 -47 98 -45 82 2 85 2 26 5 -39 2 -68 8 -68 15 0 7 22 8 68 3 37 -4
108 -10 157 -14 l90 -6 -3 -30 c-2 -16 -5 -32 -7 -33 -2 -2 -31 -6 -64 -9 -48
-5 -61 -3 -61 8 0 9 -3 10 -8 3 -4 -6 -17 -14 -29 -18 -18 -6 -23 -3 -23 10 0
13 -3 14 -14 5 -9 -8 -22 -8 -38 -2 -13 5 -43 8 -66 6 -36 -3 -42 -1 -42 16 0
11 -4 18 -9 15 -5 -4 -12 0 -14 6 -3 7 -6 1 -6 -14 -1 -23 -6 -28 -25 -28 -40
0 -54 9 -48 32 3 11 -1 24 -9 29 -11 7 -11 9 4 10 30 3 35 4 43 12 4 4 0 7 -9
7 -10 0 -17 6 -17 14 0 8 -12 17 -27 19 l-28 4 28 2 c31 1 34 16 11 49 -14 20
-22 23 -60 17 -24 -3 -55 -3 -69 1 -23 6 -25 11 -25 62 0 79 -7 61 -11 -28
l-4 -75 55 -6 55 -6 -65 -2 c-64 -1 -93 -10 -91 -27 1 -5 -3 -9 -9 -8 -5 1
-22 2 -36 3 l-26 1 7 112 c7 103 18 148 37 148 5 0 8 -10 8 -22 0 -13 4 -18 8
-13 4 6 16 12 27 13 11 2 22 8 23 13 2 5 10 9 18 9 12 0 18 81 14 208 0 4 -33
6 -73 4 -39 -2 -67 1 -61 5 13 9 25 62 27 110 0 27 2 30 12 16 11 -14 14 -12
24 20 13 38 26 47 34 25 2 -7 6 0 9 15 4 22 0 32 -19 44 -17 11 -20 18 -12 23
8 5 4 10 -11 15 -12 4 -27 2 -33 -4 -7 -7 -14 -5 -23 7 -12 16 -13 15 -14 -4
0 -12 -10 -28 -22 -37 -31 -20 -19 -30 16 -12 39 21 43 19 18 -8 -24 -25 -56
-96 -48 -105 3 -3 6 -1 6 5 0 5 7 10 15 10 11 0 13 -9 9 -41 -8 -61 -11 -66
-36 -67 -17 -1 -18 -2 -5 -6 29 -8 19 -20 -19 -21 -56 -2 -54 -12 2 -13 39 -1
44 -3 24 -9 -24 -8 -24 -8 -2 -9 21 -1 22 -6 24 -78 l2 -78 6 80 6 80 2 -82
c2 -66 -1 -82 -13 -85 -13 -2 -17 -24 -21 -108 -5 -122 -10 -144 -30 -136 -15
6 -17 -6 -7 -43 l6 -23 134 6 c85 4 132 3 129 -3 -4 -5 3 -16 14 -24 20 -14
19 -14 -6 -26 -20 -9 -35 -9 -60 -1 -19 6 -38 9 -43 6 -5 -4 -14 2 -20 11 -9
16 -10 16 -11 -4 0 -20 -5 -23 -44 -23 -27 0 -46 5 -49 13 -3 10 -11 10 -39 0
-47 -18 -69 -17 -62 2 6 15 -4 18 -56 16 -14 0 -19 2 -12 5 10 5 10 9 1 20 -9
12 -5 14 25 14 36 0 36 0 30 38 -3 20 -8 46 -12 57 -3 11 -5 27 -4 35 2 12 1
12 -6 2 -5 -7 -33 -17 -63 -21 -64 -8 -80 -16 -72 -36 3 -10 -1 -15 -11 -15
-9 0 -19 -7 -22 -15 -4 -8 -18 -15 -33 -16 l-26 -1 25 -8 c24 -8 24 -8 -6 -9
l-30 -1 -2 83 c-1 45 2 98 7 117 l9 35 2 -45 c2 -34 4 -38 7 -15 8 69 10 72
49 71 22 -1 39 4 41 12 3 9 -12 12 -55 12 -59 0 -59 0 -56 28 4 27 4 27 -5 2
-5 -14 -9 -82 -10 -152 -1 -78 -5 -128 -11 -128 -5 0 -10 -7 -10 -15 0 -16 40
-20 163 -16 l57 2 -2 -36 c-3 -32 -5 -35 -27 -30 -13 3 -59 7 -103 8 -57 1
-82 6 -89 17 -8 11 -12 12 -16 3 -6 -16 -30 -17 -39 -1 -4 7 -9 37 -10 68 -3
68 -21 176 -23 137 0 -16 -5 -26 -11 -22 -5 3 -10 -3 -10 -15 0 -17 -5 -21
-27 -18 -21 2 -33 13 -47 43 -30 65 -38 98 -21 91 8 -3 15 -1 15 4 0 6 -6 10
-14 10 -7 0 -20 10 -28 22 -11 16 -35 27 -91 39 l-77 17 0 -24 c0 -13 5 -45
10 -71 16 -74 -7 -176 -53 -237 -21 -26 -37 -54 -37 -62 0 -8 -7 -14 -15 -14
-9 0 -18 -7 -21 -15 -4 -8 -12 -15 -19 -15 -7 0 -32 -18 -55 -40 -23 -22 -50
-40 -60 -40 -10 0 -23 -7 -30 -15 -15 -18 -56 -16 -53 2 2 7 -6 15 -17 18 -13
4 -20 15 -20 33 0 20 -3 23 -12 14 -17 -17 -25 -15 -31 8 -3 11 -14 20 -25 20
-25 0 -48 28 -51 65 -2 27 4 34 38 54 25 13 41 30 41 41 0 10 3 25 6 33 3 8
-1 21 -9 28 -20 21 -8 118 17 133 26 16 72 62 79 81 4 8 12 14 18 13 6 -2 15
9 20 25 4 15 3 27 -2 27 -5 0 -9 9 -9 21 0 11 -4 17 -10 14 -6 -4 -17 -1 -25
5 -12 10 -18 10 -29 1 -10 -8 -16 -9 -21 -1 -8 14 -68 13 -83 -2 -8 -8 -15 -8
-25 1 -17 13 -52 10 -69 -7 -20 -20 -30 -14 -27 16 2 15 0 32 -4 38 -3 6 -6
41 -5 77 2 50 -2 70 -15 85 -9 10 -17 24 -17 30 0 6 -9 14 -20 17 -11 4 -18
10 -15 14 2 4 -7 14 -21 21 -13 8 -22 20 -20 27 3 7 -1 13 -10 13 -8 0 -17 6
-20 14 -8 21 -110 86 -136 86 -21 0 -21 -1 5 -28 31 -33 33 -44 11 -63 -17
-14 -48 -14 -129 1 -27 6 -74 12 -102 15 -48 4 -53 3 -53 -15 0 -11 -4 -20
-10 -20 -5 0 -10 -6 -10 -14 0 -8 -5 -16 -11 -18 -5 -2 -13 -21 -16 -44 -5
-42 9 -100 51 -199 14 -33 25 -71 25 -85 l-1 -25 -8 25 c-4 14 -9 22 -10 18
-2 -10 -2 -67 0 -70 1 -2 3 -32 5 -68 1 -36 0 -57 -2 -47 -4 17 -6 17 -21 -4
-11 -16 -12 -24 -4 -27 13 -4 17 -23 5 -21 -19 3 -22 -3 -13 -25 8 -22 -2 -36
-26 -36 -2 0 -4 34 -4 76 0 47 -4 73 -10 69 -6 -3 -10 -37 -10 -75 0 -59 -3
-71 -20 -80 -30 -16 -35 -8 -35 59 0 34 -3 61 -7 61 -5 0 -8 -27 -8 -60 0 -47
-3 -60 -15 -60 -11 0 -15 12 -15 48 -1 40 -3 45 -13 30 -7 -9 -12 -42 -12 -77
1 -72 -10 -80 -19 -16 -7 42 -26 64 -26 30 0 -8 -7 -15 -16 -15 -14 0 -16 7
-11 40 3 22 1 40 -4 40 -5 0 -9 -12 -10 -27 -2 -57 -7 -89 -18 -113 -9 -20
-11 -21 -10 -5 3 53 -2 95 -11 95 -5 0 -10 -7 -10 -15 0 -8 -4 -15 -10 -15 -5
0 -10 28 -12 63 l-3 62 -8 -60 c-4 -33 -11 -76 -14 -95 -7 -35 -7 -35 -13 14
-3 28 -5 76 -4 108 2 33 -1 58 -6 58 -6 0 -10 -33 -10 -75 0 -41 -4 -75 -8
-75 -5 0 -7 14 -6 31 2 23 -3 32 -19 39 -12 5 -16 9 -9 9 10 1 10 6 1 22 -9
17 -13 19 -20 8 -7 -11 -12 -12 -29 -1 -29 18 -100 16 -100 -3 0 -12 14 -15
65 -15 37 0 65 -4 65 -10 0 -13 -117 -13 -124 -1 -6 10 -13 9 -58 -4 -49 -13
-30 -22 47 -21 42 1 74 -3 72 -8 -3 -9 -36 -10 -139 -7 -32 1 -38 5 -39 24 l0
22 -11 -21 c-12 -27 -88 -33 -88 -8 0 9 5 12 11 8 7 -4 10 -1 7 6 -8 26 -28
22 -28 -4 0 -18 -5 -26 -17 -25 -11 0 -13 3 -5 6 14 6 16 43 2 43 -5 0 -10 -6
-10 -12 0 -9 -3 -8 -10 2 -5 8 -12 11 -17 7 -4 -4 -2 -17 5 -27 11 -17 10 -20
-8 -20 -12 0 -20 6 -19 13 3 28 -2 35 -32 39 -22 4 -33 0 -40 -14 -8 -15 -6
-18 13 -19 20 -1 19 -2 -6 -9 -33 -10 -46 -6 -46 16 0 21 -17 17 -23 -6 -5
-21 -41 -28 -52 -10 -3 6 -21 10 -38 11 -26 0 -28 2 -12 8 18 7 17 8 -7 13
-19 4 -25 1 -21 -9 4 -10 -10 -13 -61 -13 -39 0 -66 4 -66 10 0 7 21 9 55 7
30 -2 52 -1 49 4 -2 4 -28 8 -57 8 -41 0 -55 -5 -69 -22 -21 -27 -35 -15 -20
17 7 16 7 27 0 34 -6 6 -6 12 1 16 6 4 11 16 11 27 0 25 26 35 46 18 13 -10
17 -10 25 2 6 10 9 10 9 2 0 -17 46 -17 56 -1 5 7 7 25 6 40 -2 25 1 28 28 28
31 0 34 -5 30 -63 -1 -19 3 -28 12 -26 7 1 34 1 61 0 l47 -1 0 -40 c0 -22 4
-40 9 -40 5 0 9 25 10 55 0 31 3 60 7 66 3 6 0 10 -7 8 -27 -3 -37 1 -43 19
-8 21 -32 63 -38 65 -3 1 -12 -4 -21 -11 -11 -9 -22 -10 -34 -4 -10 5 -29 6
-43 1 -25 -7 -25 -7 5 -9 27 -3 28 -3 6 -7 -15 -3 -29 1 -35 9 -6 8 -24 15
-41 15 -89 2 -95 3 -95 20 0 14 -2 14 -18 1 -17 -14 -58 -18 -77 -6 -13 8 -98
4 -113 -6 -8 -5 -10 -1 -5 11 6 15 4 16 -9 5 -13 -10 -17 -10 -22 0 -5 11 -7
11 -12 0 -5 -10 -9 -10 -20 -1 -11 9 -15 8 -20 -4 -3 -9 -2 -21 2 -28 5 -8 3
-9 -5 -4 -7 4 -11 17 -9 29 4 17 -1 22 -19 24 -23 2 -23 1 -8 -28 12 -23 12
-30 3 -28 -7 2 -18 17 -24 33 -9 24 -17 30 -42 30 -16 0 -33 3 -37 7 -12 12
-34 -3 -28 -20 4 -10 -1 -8 -15 6 -26 26 -35 27 -55 7 -13 -13 -16 -13 -21 0
-3 8 -15 15 -26 15 -15 0 -20 -7 -21 -27 l-1 -28 -9 30 c-8 28 -12 30 -59 32
-27 1 -50 1 -50 0 0 -1 4 -17 9 -35 9 -28 7 -32 -10 -32 -12 0 -19 7 -19 20 0
11 -8 28 -18 38 -23 23 -35 52 -22 52 6 0 11 -6 11 -12 1 -7 5 5 8 27 9 52 7
222 -2 231 -8 8 -166 8 -175 0 -10 -11 3 -15 68 -23 35 -4 65 -13 67 -20 3 -9
-5 -11 -29 -8 l-33 5 33 -15 c37 -17 44 -40 10 -30 -22 6 -22 5 -3 -6 30 -18
31 -19 15 -29 -10 -7 -11 -10 -2 -10 21 0 13 -18 -10 -23 -22 -4 -22 -4 -2 -6
16 -1 21 -8 22 -31 0 -17 -5 -30 -11 -30 -8 0 -7 -3 2 -9 9 -6 10 -11 2 -15
-6 -4 -11 -12 -11 -17 0 -6 4 -8 9 -4 12 7 22 -9 31 -51 7 -29 5 -34 -11 -34
-13 0 -19 7 -19 21 0 26 -17 59 -31 59 -7 0 -8 -14 -4 -40 6 -33 4 -40 -9 -40
-9 0 -18 6 -20 13 -2 6 -8 27 -14 45 -10 31 -9 32 16 33 24 1 23 2 -7 9 -36 9
-61 4 -73 -14 -12 -17 -9 -29 5 -23 8 3 20 1 28 -4 12 -7 12 -9 0 -9 -9 0 -11
-7 -8 -22 6 -22 6 -22 -13 2 l-20 25 0 -23 c0 -12 7 -25 15 -28 20 -8 19 -44
0 -44 -14 0 -16 -46 -15 -392 1 -336 4 -390 15 -374 9 12 21 17 35 13 17 -4
19 -3 9 9 -10 12 -1 14 57 13 61 -2 64 -3 29 -9 -36 -6 -33 -7 30 -10 39 -2
75 -4 80 -5 6 -2 18 -3 28 -4 11 -1 16 -6 12 -13 -4 -7 0 -5 8 5 15 18 47 24
47 8 0 -6 16 -7 37 -4 26 4 34 3 29 -5 -4 -7 -2 -12 3 -12 6 0 11 7 11 15 0
13 12 15 75 12 41 -2 77 -6 80 -9 3 -3 25 -3 48 -1 32 4 53 -1 90 -21 26 -14
56 -26 67 -26 10 0 20 -4 22 -9 2 -5 25 -11 52 -14 52 -7 74 -17 35 -17 l-23
0 23 -17 c19 -13 27 -14 43 -4 12 7 17 8 13 2 -3 -6 0 -11 7 -12 89 -5 135 -4
125 3 -6 4 -36 8 -64 8 -41 0 -53 3 -53 16 0 8 -4 13 -9 9 -5 -3 -12 -1 -15 4
-3 5 10 12 30 15 19 4 43 10 52 13 14 4 14 3 3 -5 -10 -7 3 -11 45 -14 32 -2
64 -2 69 1 6 3 21 4 34 2 15 -2 21 1 17 8 -7 11 8 14 49 12 18 -1 18 0 -2 9
-15 6 -21 15 -17 25 4 10 0 15 -10 15 -9 0 -16 5 -16 10 0 6 -11 10 -24 10
-14 0 -27 4 -30 9 -3 5 -15 7 -26 4 -11 -3 -20 0 -20 6 0 5 -7 8 -15 5 -8 -4
-15 -1 -15 5 0 6 -6 11 -14 11 -15 0 -76 64 -76 80 0 4 4 10 9 12 14 5 24 88
12 102 -13 16 62 100 105 116 30 12 214 4 214 -8 0 -4 -49 -6 -110 -4 -72 2
-110 -1 -110 -7 0 -6 -6 -11 -14 -11 -15 0 -49 -40 -42 -48 7 -6 38 14 37 24
-1 5 4 9 9 8 6 -1 17 -2 26 -2 8 -1 12 -6 9 -12 -4 -6 10 -10 34 -10 23 0 41
5 41 10 0 6 7 10 15 10 8 0 15 -4 15 -9 0 -5 48 -8 108 -7 68 2 110 -1 114 -8
5 -7 12 -4 22 9 13 19 14 18 9 -7 -4 -24 -8 -26 -29 -18 -23 9 -24 8 -24 -30
0 -32 4 -40 19 -40 29 0 81 -21 81 -32 0 -18 33 -37 63 -38 30 0 97 -39 97
-56 0 -14 -102 -84 -122 -84 -19 0 -51 -34 -41 -44 4 -4 0 -4 -9 -1 -11 4 -20
-1 -28 -14 -6 -12 -7 -21 -1 -21 5 0 12 6 14 13 3 6 6 2 6 -11 1 -13 5 -20 11
-17 6 3 10 1 10 -4 0 -6 16 -11 35 -11 44 0 46 -20 3 -21 -19 -1 -25 -3 -15
-6 24 -6 69 5 63 15 -10 16 41 6 58 -10 21 -22 27 -23 20 -3 -4 8 -1 15 5 15
6 0 11 -5 11 -11 0 -6 7 -9 15 -5 10 3 15 -1 15 -11 0 -14 -9 -15 -62 -9 -58
5 -61 5 -37 -8 15 -7 41 -12 59 -10 27 3 31 1 25 -14 -12 -28 -104 -331 -120
-397 -8 -33 -30 -130 -49 -215 -19 -85 -48 -187 -65 -225 -109 -257 -104 -242
-106 -357 l-2 -108 2009 0 2008 0 0 375 c0 272 -3 375 -11 375 -8 0 -9 13 -5
40 4 25 2 40 -4 40 -5 0 -10 -6 -10 -14 0 -8 -9 -18 -21 -21 -22 -7 -34 -1
-34 18 -1 7 -7 11 -14 9 -7 -1 -25 5 -38 14 -14 9 -22 11 -19 5 4 -6 3 -11 -2
-11 -5 0 -12 11 -14 24 -5 23 -3 24 31 19 20 -3 58 -12 86 -19 46 -11 66 -11
53 1 -2 3 -47 14 -99 25 -343 72 -424 91 -428 101 -2 7 -20 30 -40 52 -34 38
-35 40 -11 34 46 -11 557 -107 568 -107 4 0 7 29 7 64 l0 64 -53 7 c-30 4 -56
4 -60 1 -3 -3 1 -6 9 -6 8 0 31 -5 52 -11 36 -10 37 -12 37 -54 0 -28 -4 -45
-12 -45 -6 0 -74 12 -150 27 l-138 27 1 36 c0 32 1 33 10 12 10 -26 29 -24 86
9 36 20 35 22 46 -51 3 -14 5 -7 6 18 1 35 4 42 21 42 29 0 25 17 -7 29 l-28
11 28 -4 c45 -6 30 11 -20 23 l-48 10 53 -4 c41 -3 52 -1 52 10 0 13 9 18 30
17 3 0 24 -3 48 -7 l42 -7 0 66 0 65 -47 6 c-27 4 -52 8 -57 9 -11 2 -8 148 3
179 7 18 15 21 57 19 36 -2 45 0 34 7 -8 6 -30 11 -47 11 -18 0 -33 1 -33 3 0
1 6 22 14 47 13 42 16 45 45 42 25 -3 31 0 31 16 0 16 -9 21 -42 26 -36 5
-459 29 -733 41 -75 4 -213 12 -330 20 -27 2 -124 7 -215 11 -91 3 -205 9
-255 13 -84 6 -90 8 -93 29 -3 21 -1 22 91 22 52 0 148 -3 215 -7 121 -6 121
-6 125 -32 l4 -26 2 27 1 28 73 -5 c39 -3 168 -10 286 -15 156 -7 217 -13 222
-22 7 -10 9 -10 9 0 0 14 89 16 201 6 61 -6 66 -8 62 -28 -3 -19 -2 -19 9 2
12 24 12 24 152 17 78 -4 155 -9 173 -11 37 -4 47 7 39 42 -6 22 -9 23 -29 12
-29 -16 -155 -11 -184 8 -29 18 -53 18 -53 -1 0 -8 -4 -15 -10 -15 -5 0 -9 6
-7 13 1 6 -6 11 -15 9 -14 -2 -18 4 -18 33 0 24 4 35 15 35 8 0 15 5 15 10 0
6 -4 10 -10 10 -5 0 -10 8 -10 17 0 10 -7 37 -16 60 l-17 44 -86 -5 c-112 -6
-131 -12 -131 -42 0 -14 -7 -27 -15 -30 -8 -4 -15 -12 -15 -19 0 -37 -57 -24
-63 14 l-4 26 -2 -27 c-1 -26 -4 -28 -42 -28 l-42 0 7 38 c3 20 7 78 8 127 1
85 2 86 7 30 l6 -60 8 59 c7 45 13 59 28 63 26 7 25 43 -2 43 -19 0 -20 4 -13
83 5 63 11 87 28 105 l21 24 6 -54 6 -53 1 54 c2 53 2 53 31 48 15 -3 33 -1
39 5 7 7 13 10 16 7 2 -2 1 -50 -2 -106 l-5 -103 -49 0 c-45 0 -49 -2 -46 -21
5 -35 42 -42 72 -14 l26 24 1 -72 2 -72 7 67 c5 37 11 72 15 78 3 5 1 10 -5
10 -13 0 -3 175 11 202 14 27 11 30 -28 24 -21 -3 -69 -8 -108 -10 l-70 -5 60
10 c33 5 78 12 100 15 l40 4 0 48 c1 26 4 56 9 67 4 11 -1 7 -12 -9 -14 -21
-19 -38 -15 -62 6 -38 5 -38 -107 -49 -55 -5 -62 -4 -49 7 9 7 22 39 29 71 8
32 17 53 21 46 4 -8 9 -5 13 9 11 34 48 75 56 62 5 -7 9 -2 12 15 5 22 1 28
-21 37 -24 10 -25 11 -6 18 16 7 17 9 3 9 -20 1 -36 43 -19 49 8 3 6 9 -6 18
-17 13 -17 13 0 14 12 0 16 4 11 12 -5 7 -7 26 -6 43 1 16 -2 36 -7 44 -7 10
-9 3 -10 -25z m-471 -228 c0 -3 -4 -8 -10 -11 -5 -3 -10 -1 -10 4 0 6 5 11 10
11 6 0 10 -2 10 -4z m394 -61 c-4 -8 -11 -12 -16 -9 -6 4 -5 10 3 15 19 12 19
11 13 -6z m-2038 -25 c24 -11 44 -26 44 -34 0 -15 -63 -36 -107 -36 -17 0 -38
9 -48 20 -10 11 -25 20 -34 20 -9 0 -2 7 14 16 17 8 34 19 40 25 14 14 42 11
91 -11z m-286 -51 c0 -10 -44 -26 -57 -22 -19 7 -16 19 9 48 l22 25 13 -22 c7
-13 12 -26 13 -29z m53 -6 c-7 -2 -21 -2 -30 0 -10 3 -4 5 12 5 17 0 24 -2 18
-5z m192 -63 c17 -7 17 -9 3 -9 -15 -1 -16 -5 -8 -27 7 -18 7 -31 -1 -40 -18
-22 45 1 85 31 39 30 69 30 75 0 2 -11 8 -23 14 -27 7 -4 6 -16 -3 -37 -13
-34 -2 -61 26 -61 10 0 14 -13 14 -40 0 -22 -4 -40 -9 -40 -5 0 -12 -9 -16
-19 -7 -22 -71 -89 -104 -109 -23 -13 -191 -14 -191 0 0 6 -21 5 -62 -1 -5 0
-8 -8 -8 -16 0 -8 -3 -15 -8 -15 -16 0 -52 32 -52 46 0 8 -5 14 -11 14 -6 0
-9 -8 -7 -18 3 -12 -2 -24 -13 -31 -16 -10 -19 -8 -20 11 0 13 -3 35 -5 49 -2
15 0 37 5 50 l10 24 0 -23 c1 -21 21 -52 34 -52 7 0 -4 84 -13 93 -3 4 -5 -7
-4 -25 2 -18 1 -24 -3 -13 -3 11 -10 23 -17 27 -8 5 -8 13 2 28 15 24 16 41 1
20 -9 -12 -9 -11 -2 5 4 11 8 52 7 92 -1 71 -1 71 18 48 10 -13 18 -27 18 -32
0 -4 9 -14 20 -21 16 -10 20 -10 21 0 0 10 2 10 6 1 2 -7 9 -13 14 -13 6 0 7
5 4 10 -3 6 1 10 10 10 9 0 13 -4 10 -10 -9 -15 12 -12 28 4 8 9 32 15 56 14
23 0 45 2 48 6 12 12 -15 29 -34 21 -10 -4 -50 -10 -90 -12 -67 -4 -72 -3 -78
17 -5 15 -2 26 6 32 11 7 11 11 2 15 -28 11 -10 18 47 19 33 0 60 -2 60 -6 0
-4 7 -7 15 -7 8 0 12 4 9 8 -2 4 10 10 28 12 18 2 35 4 38 5 3 0 14 -3 25 -8z
m1632 -32 c-3 -8 -6 -5 -6 6 -1 11 2 17 5 13 3 -3 4 -12 1 -19z m-1589 -16 c2
-7 -3 -12 -12 -12 -9 0 -16 7 -16 16 0 17 22 14 28 -4z m1660 -37 c4 6 17 12
30 12 21 2 22 -1 22 -92 l0 -95 -61 1 -62 1 6 74 c5 50 12 79 24 92 12 12 21
14 26 8 5 -8 9 -8 15 -1z m374 -91 l-9 -69 -1 90 c0 68 2 85 9 69 7 -14 7 -44
1 -90z m-4377 18 c-3 -3 -5 1 -5 9 0 12 -2 11 -11 -1 -9 -12 -10 -12 -5 3 3
10 6 24 7 30 0 7 5 1 10 -12 5 -13 7 -26 4 -29z m122 16 c-3 -8 -6 -5 -6 6 -1
11 2 17 5 13 3 -3 4 -12 1 -19z m133 1 c0 -6 -4 -7 -10 -4 -5 3 -10 11 -10 16
0 6 5 7 10 4 6 -3 10 -11 10 -16z m293 -36 c-1 -6 5 -10 15 -9 13 1 18 -9 20
-41 2 -29 8 -43 17 -43 20 0 30 -21 15 -30 -8 -5 -10 -17 -7 -32 5 -17 1 -29
-13 -41 -25 -21 -30 -21 -30 -1 0 11 -6 15 -20 11 -11 -3 -20 0 -20 6 0 7 -5
5 -10 -3 -6 -10 -13 -11 -17 -5 -5 6 -20 11 -35 11 -22 1 -28 -3 -29 -20 -1
-19 -2 -19 -12 4 -10 20 -19 25 -45 23 -20 -1 -30 3 -26 9 4 6 1 14 -6 18 -9
5 -9 9 -1 14 6 4 14 1 16 -7 7 -18 65 -10 65 9 0 13 -21 18 -59 16 -18 0 -46
27 -37 36 4 3 11 0 16 -7 12 -20 41 -6 33 16 -4 13 0 12 17 -6 15 -15 25 -20
28 -13 2 7 8 9 14 6 20 -12 68 -10 68 3 0 7 4 13 9 13 5 0 7 18 4 41 -5 36 -4
41 13 37 10 -2 18 -9 17 -15z m2252 -13 c-6 -9 -9 -9 -16 1 -10 17 0 34 13 21
6 -6 7 -16 3 -22z m-2766 5 c9 -2 28 -4 44 -4 31 -1 38 -21 6 -21 -11 0 -17
-4 -14 -10 3 -5 1 -10 -4 -10 -6 0 -12 8 -12 18 -1 9 -4 4 -8 -13 -6 -27 -10
-30 -43 -30 -32 0 -37 -4 -42 -27 -5 -24 -10 -28 -41 -28 -30 0 -35 3 -35 24
0 14 -4 28 -10 31 -6 3 -7 -1 -4 -9 4 -11 0 -16 -10 -16 -9 0 -16 -4 -16 -10
0 -5 -4 -10 -10 -10 -5 0 -10 7 -10 16 0 8 -4 13 -9 10 -5 -3 -8 2 -7 11 1 12
-7 17 -29 17 -27 1 -30 4 -33 39 l-3 37 137 -6 c75 -3 144 -8 153 -9z m138
-21 c-3 -3 -12 -4 -19 -1 -8 3 -5 6 6 6 11 1 17 -2 13 -5z m172 -16 c-1 -17
-3 -18 -6 -6 -2 9 -10 15 -17 12 -7 -3 -23 0 -37 5 -21 9 -19 10 19 10 37 1
42 -1 41 -21z m581 2 c0 -5 -7 -10 -16 -10 -8 0 -12 5 -9 10 3 6 10 10 16 10
5 0 9 -4 9 -10z m-673 -46 c-9 -9 -28 6 -21 18 4 6 10 6 17 -1 6 -6 8 -13 4
-17z m4156 9 c-7 -2 -21 -2 -30 0 -10 3 -4 5 12 5 17 0 24 -2 18 -5z m-463
-23 c0 -5 -2 -10 -4 -10 -3 0 -8 5 -11 10 -3 6 -1 10 4 10 6 0 11 -4 11 -10z
m-4132 -35 c-3 -3 -9 2 -12 12 -6 14 -5 15 5 6 7 -7 10 -15 7 -18z m4107 -22
c-1 -16 -3 -65 -3 -110 -1 -46 -6 -83 -11 -83 -5 0 -7 15 -5 33 1 17 3 67 3
110 1 42 5 77 10 77 4 0 7 -12 6 -27z m-2482 -10 c-7 -2 -19 -2 -25 0 -7 3 -2
5 12 5 14 0 19 -2 13 -5z m-383 -45 c0 -16 -3 -19 -11 -11 -6 6 -8 16 -5 22
11 17 16 13 16 -11z m430 -7 c0 -14 -18 -23 -30 -16 -6 4 -8 11 -5 16 8 12 35
12 35 0z m3217 -67 c-3 -3 -12 -4 -19 -1 -8 3 -5 6 6 6 11 1 17 -2 13 -5z
m-4617 -14 c0 -5 -7 -10 -15 -10 -8 0 -15 5 -15 10 0 6 7 10 15 10 8 0 15 -4
15 -10z m905 -10 c5 -8 11 -8 20 0 16 14 30 -3 21 -27 -5 -13 -9 -13 -23 -2
-13 11 -17 11 -21 1 -3 -10 -7 -10 -17 -2 -8 6 -11 18 -8 26 6 17 19 18 28 4z
m2722 -6 c-3 -3 -12 -4 -19 -1 -8 3 -5 6 6 6 11 1 17 -2 13 -5z m886 -1 c-7
-2 -21 -2 -30 0 -10 3 -4 5 12 5 17 0 24 -2 18 -5z m82 -3 c4 -6 -6 -7 -27 -3
-44 8 -48 13 -10 13 17 0 34 -4 37 -10z m-2985 -20 c0 -5 -5 -10 -11 -10 -5 0
-7 5 -4 10 3 6 8 10 11 10 2 0 4 -4 4 -10z m2350 -20 c0 -5 -7 -7 -15 -4 -8 4
-15 8 -15 10 0 2 7 4 15 4 8 0 15 -4 15 -10z m-3053 -13 c6 2 14 -1 18 -7 4
-7 -15 -10 -60 -9 -37 1 -63 5 -58 9 12 12 56 17 73 9 8 -3 20 -4 27 -2z m661
4 c65 -1 102 -5 102 -12 0 -6 -31 -9 -87 -8 -112 3 -163 9 -163 20 0 5 10 7
23 5 12 -3 68 -5 125 -5z m2342 -7 c0 -2 -24 -4 -52 -3 -33 0 -46 3 -35 8 18
7 87 3 87 -5z m-3278 -26 c-9 -9 -12 -7 -12 12 0 19 3 21 12 12 9 -9 9 -15 0
-24z m2697 10 c0 -13 -3 -17 -6 -10 -2 6 -9 10 -14 6 -5 -3 -9 -1 -9 5 0 8 9
14 28 20 1 1 2 -9 1 -21z m-3179 -18 c0 -27 -3 -30 -34 -30 -21 0 -36 6 -40
15 -7 20 20 45 50 45 20 0 24 -5 24 -30z m91 13 c7 -7 -1 -13 -27 -17 -34 -7
-53 2 -54 24 0 10 70 4 81 -7z m793 1 c15 -6 17 -4 11 6 -6 10 -2 11 18 6 32
-8 77 -24 77 -28 0 -2 -37 -2 -82 -1 -64 1 -74 0 -44 -6 21 -5 47 -6 58 -4 10
3 18 1 18 -5 0 -5 8 -9 18 -9 45 0 57 -5 27 -12 -16 -4 -35 -4 -41 1 -7 5 -16
8 -20 7 -5 -1 -33 -1 -61 0 -48 1 -53 3 -53 24 0 13 2 26 5 29 7 6 44 2 69 -8z
m181 -42 c-12 -13 -24 22 -12 37 10 12 13 11 15 -8 2 -13 1 -26 -3 -29z m241
23 c4 -8 3 -23 -1 -32 -11 -26 -12 -63 -2 -63 5 0 4 -6 -2 -14 -8 -9 -8 -16
-2 -20 6 -4 7 -14 4 -22 -4 -12 -1 -15 13 -12 17 3 19 12 18 91 -1 89 2 96 40
81 18 -7 23 -89 6 -99 -7 -4 -7 -12 -2 -18 4 -7 8 -24 7 -39 -1 -18 5 -28 17
-31 13 -4 18 1 18 14 0 10 -6 19 -12 19 -9 0 -10 3 -2 8 15 10 25 83 14 98
-17 20 0 44 31 44 23 0 29 -5 30 -22 1 -13 0 -27 -1 -33 -1 -5 -4 -40 -5 -76
-2 -60 0 -66 17 -61 19 5 20 10 22 129 1 34 4 64 7 68 4 3 15 -14 24 -40 10
-25 15 -48 12 -52 -4 -3 1 -11 10 -18 15 -11 29 -50 15 -41 -4 2 -13 -2 -20
-10 -7 -8 -8 -14 -2 -14 5 0 10 -9 10 -20 0 -13 7 -20 20 -20 30 0 24 -17 -10
-29 -18 -6 -30 -6 -30 0 0 5 -10 9 -22 9 -21 0 -21 0 -2 -14 21 -16 27 -11
-60 -45 -16 -7 -43 -5 -82 5 -33 7 -71 16 -85 19 -21 4 -26 11 -27 35 0 21 4
30 16 31 16 1 16 2 0 6 -11 3 -15 12 -13 31 2 15 4 60 4 100 1 67 13 94 27 57z
m-1523 -15 c-3 -11 -7 -20 -9 -20 -2 0 -4 9 -4 20 0 11 4 20 9 20 5 0 7 -9 4
-20z m114 -12 c-3 -8 -6 -5 -6 6 -1 11 2 17 5 13 3 -3 4 -12 1 -19z m250 -14
c-3 -3 -13 0 -21 9 -8 8 -12 18 -9 21 4 4 14 0 22 -9 8 -8 12 -17 8 -21z m-57
16 c0 -5 -2 -10 -4 -10 -3 0 -8 5 -11 10 -3 6 -1 10 4 10 6 0 11 -4 11 -10z
m-240 -19 c0 -5 -19 -9 -42 -10 -24 0 -53 -3 -65 -5 -14 -3 -20 0 -17 7 5 14
124 21 124 8z m4087 3 c-3 -3 -12 -4 -19 -1 -8 3 -5 6 6 6 11 1 17 -2 13 -5z
m-3924 -20 c-2 -5 -38 -16 -81 -23 -42 -7 -89 -15 -104 -18 -16 -3 -28 -1 -28
5 0 5 38 15 85 22 47 7 83 15 81 19 -2 3 8 6 24 6 15 0 26 -5 23 -11z m172
-30 c9 -20 13 -43 10 -55 -4 -12 -8 -46 -9 -75 -1 -30 -5 -56 -8 -60 -13 -12
-106 -19 -174 -13 -56 6 -90 17 -162 53 -51 25 -95 47 -99 47 -18 3 -33 12
-33 19 0 5 16 6 35 3 28 -4 35 -2 35 11 0 9 8 16 18 17 67 2 198 13 223 18 4
0 9 10 12 21 3 14 14 20 34 22 15 0 34 2 42 2 8 1 16 6 18 11 8 25 42 13 58
-21z m902 10 c49 -21 40 -23 -22 -6 -30 8 -55 19 -55 24 0 10 22 5 77 -18z
m3345 14 c-9 -9 -15 -9 -24 0 -9 9 -7 12 12 12 19 0 21 -3 12 -12z m-3288 -99
c8 -8 6 -10 -9 -6 -11 3 -39 11 -63 17 -24 6 -45 16 -48 23 -3 8 -20 11 -48 9
-25 -2 -53 1 -63 6 -13 8 -5 9 33 6 30 -3 55 -1 58 5 7 10 119 -37 140 -60z
m2369 30 c25 1 27 -1 28 -41 0 -24 2 -51 4 -60 4 -20 -21 -25 -28 -5 -3 6 -6
-3 -6 -20 -1 -32 -2 -33 -48 -34 -32 -1 -38 -3 -18 -6 58 -7 75 -13 75 -28 0
-18 16 -20 23 -2 3 6 6 0 6 -15 l1 -27 -62 29 c-35 17 -69 30 -75 30 -7 0 -13
5 -13 10 0 6 -8 14 -17 17 -26 10 -105 68 -125 92 -19 22 -23 52 -10 65 4 5
59 5 122 1 63 -4 127 -7 143 -6z m-2540 -6 c-7 -2 -19 -2 -25 0 -7 3 -2 5 12
5 14 0 19 -2 13 -5z m2718 -25 l0 -23 10 24 c8 20 14 22 40 17 17 -3 40 -6 50
-6 15 0 19 -8 21 -37 l1 -38 4 38 4 39 42 -7 c22 -4 60 -7 84 -7 l43 1 0 -59
c0 -33 4 -60 9 -60 4 0 6 11 3 25 -3 20 -1 24 12 19 11 -4 16 -1 16 12 0 32
13 5 20 -41 6 -42 6 -45 -17 -45 -12 0 -23 4 -23 9 0 5 -11 9 -25 9 -20 0 -25
-6 -25 -25 0 -25 0 -25 -67 -19 -38 4 -103 12 -146 18 -78 10 -79 11 -75 38 3
22 1 26 -14 22 -13 -3 -18 2 -19 19 l-1 24 -8 -25 c-6 -19 -8 -12 -9 32 -1 46
2 57 17 61 40 11 52 7 53 -15z m408 -7 c10 -7 12 -22 6 -67 -9 -74 2 -67 12 7
7 47 11 54 32 55 22 1 23 -1 18 -40 -4 -28 -3 -35 3 -21 5 11 9 30 9 43 1 17
6 22 19 18 9 -3 71 -8 137 -11 66 -4 123 -9 126 -13 4 -4 10 -27 14 -51 6 -39
5 -42 -11 -38 -11 3 -84 11 -163 17 -118 10 -145 10 -152 -1 -4 -7 -6 -16 -3
-18 3 -3 8 0 12 6 5 8 31 9 91 3 47 -5 122 -12 167 -15 l82 -7 -9 39 c-13 58
-12 63 21 63 29 0 30 -1 30 -47 0 -27 3 -58 6 -70 5 -20 2 -23 -19 -23 -16 0
-27 7 -30 18 -3 9 -4 -2 -2 -25 3 -42 3 -43 -28 -43 -30 0 -186 17 -232 25
-11 2 -35 4 -52 4 -30 1 -33 4 -33 31 0 17 -3 29 -7 29 -5 -1 -21 -1 -37 0
l-29 1 6 64 6 65 -32 4 -32 4 30 1 c17 1 36 -2 44 -7z m-2862 -73 c0 -45 -1
-49 -8 -23 -7 25 -3 75 6 75 1 0 3 -24 2 -52z m3453 -6 c0 -37 -19 -102 -30
-102 -8 0 -7 23 6 108 6 38 24 33 24 -6z m79 21 c0 -10 -8 -43 -17 -73 -14
-44 -22 -56 -41 -58 -23 -4 -24 -2 -17 50 12 92 15 98 47 98 21 0 29 -5 28
-17z m-2732 -60 c0 -46 -2 -54 -10 -36 -8 18 -3 93 7 93 2 0 3 -26 3 -57z
m2520 10 c-3 -10 -5 -4 -5 12 0 17 2 24 5 18 2 -7 2 -21 0 -30z m-3290 -25
c-3 -7 -5 -2 -5 12 0 14 2 19 5 13 2 -7 2 -19 0 -25z m994 -5 c7 -20 5 -22
-16 -21 -19 2 -25 8 -25 26 0 30 29 26 41 -5z m-2701 -3 c0 -5 -4 -10 -10 -10
-5 0 -10 5 -10 10 0 6 5 10 10 10 6 0 10 -4 10 -10z m5007 -32 c-3 -7 -5 -2
-5 12 0 14 2 19 5 13 2 -7 2 -19 0 -25z m-727 1 c65 -6 111 -16 120 -25 10
-10 11 -14 2 -14 -7 0 -12 -11 -12 -25 0 -30 8 -29 -152 -8 l-128 17 0 38 c0
38 1 39 33 34 17 -3 79 -11 137 -17z m-4137 4 c-7 -2 -19 -2 -25 0 -7 3 -2 5
12 5 14 0 19 -2 13 -5z m957 -43 c0 -5 -8 -10 -17 -10 -15 0 -16 2 -3 10 19
12 20 12 20 0z m360 0 c0 -5 -2 -10 -4 -10 -3 0 -8 5 -11 10 -3 6 -1 10 4 10
6 0 11 -4 11 -10z m3315 -10 c160 -16 155 -13 155 -60 0 -45 1 -45 -109 -34
l-61 7 -2 36 -1 36 -4 -33 -4 -33 -67 7 c-37 4 -85 8 -106 8 -38 1 -40 0 -41
-34 -3 -57 -5 -61 -15 -55 -19 12 -8 165 12 165 5 0 7 -4 4 -8 -2 -4 -1 -14 5
-22 7 -12 9 -10 9 8 0 12 5 22 10 22 6 0 10 -4 10 -10 0 -5 5 -10 10 -10 6 0
10 7 10 16 0 13 7 15 38 10 20 -3 87 -10 147 -16z m202 -32 c-2 -13 -4 -5 -4
17 -1 22 1 32 4 23 2 -10 2 -28 0 -40z m-548 -63 c-2 -90 -5 -105 -18 -102 -9
1 -15 10 -15 20 2 18 -12 24 -18 8 -1 -5 -23 -1 -46 10 -24 11 -42 22 -40 25
3 2 30 -1 62 -7 54 -11 84 -6 59 9 -14 9 -13 63 1 73 5 4 5 13 0 20 -14 23 -7
48 14 49 2 0 2 -47 1 -105z m721 64 c0 -24 -4 -38 -10 -34 -17 10 -11 75 7 75
2 0 3 -18 3 -41z m-4170 11 c0 -5 -10 -10 -22 -9 -22 0 -22 1 -3 9 11 5 21 9
23 9 1 1 2 -3 2 -9z m50 0 c0 -5 -4 -10 -9 -10 -6 0 -13 5 -16 10 -3 6 1 10 9
10 9 0 16 -4 16 -10z m1660 0 c0 -5 -5 -10 -11 -10 -5 0 -7 5 -4 10 3 6 8 10
11 10 2 0 4 -4 4 -10z m40 0 c0 -5 -7 -10 -15 -10 -8 0 -15 5 -15 10 0 6 7 10
15 10 8 0 15 -4 15 -10z m-1987 -7 c-7 -2 -19 -2 -25 0 -7 3 -2 5 12 5 14 0
19 -2 13 -5z m3522 -11 l120 -18 1 -38 1 -38 -56 7 c-64 7 -221 73 -221 92 0
16 10 16 155 -5z m847 11 c-10 -4 -10 -8 0 -21 12 -15 11 -16 -4 -3 -19 14
-15 32 5 30 8 0 8 -2 -1 -6z m-2322 -25 c0 -10 -85 -8 -125 2 -20 5 -5 7 47 6
43 0 78 -4 78 -8z m2024 -54 c55 -7 103 -14 108 -14 4 0 7 -20 6 -44 -3 -43
-4 -44 -33 -40 -16 2 -93 13 -170 24 -77 11 -142 20 -145 20 -3 0 -5 12 -4 28
1 15 3 33 3 41 1 15 59 11 235 -15z m434 -54 l32 0 -1 -51 c-2 -51 -2 -51 -32
-45 -16 3 -40 6 -53 6 -22 0 -24 4 -24 51 0 48 1 51 23 45 12 -3 37 -6 55 -6z
m-405 -51 l77 -11 0 -44 c0 -53 8 -52 -171 -19 -151 28 -163 29 -154 15 3 -5
19 -10 36 -10 16 0 29 -4 29 -10 0 -5 6 -7 14 -4 8 3 39 1 68 -5 29 -6 71 -13
93 -16 121 -14 126 -17 122 -82 -2 -28 -9 -28 -132 -3 -53 11 -107 20 -119 20
-11 0 -53 24 -93 53 -39 28 -80 58 -90 65 -16 12 -16 12 7 8 28 -6 43 2 48 23
2 9 -5 12 -26 9 -17 -2 -34 2 -42 11 -12 12 -8 13 29 7 38 -6 42 -5 37 12 -7
21 -7 21 267 -19z m-350 -16 c-7 -2 -19 -2 -25 0 -7 3 -2 5 12 5 14 0 19 -2
13 -5z m596 -89 c10 -9 -55 -3 -69 6 -10 6 -2 7 25 3 22 -3 42 -7 44 -9z
m-200 -215 l63 -12 -6 -37 -6 -38 46 -11 c75 -19 44 -23 -37 -5 -41 9 -78 18
-84 19 -5 2 -19 20 -30 41 -11 22 -27 45 -35 52 -13 11 -12 12 5 9 11 -3 49
-11 84 -18z m153 -31 c50 -10 58 -15 58 -35 0 -29 -24 -30 -43 -3 -10 14 -20
18 -32 14 -13 -5 -16 -4 -11 4 5 8 2 10 -8 6 -9 -3 -16 -10 -16 -15 0 -5 -6
-9 -14 -9 -8 0 -13 10 -13 25 0 29 1 29 79 13z m56 -103 c-2 -2 -15 -1 -28 2
l-25 7 25 6 c22 6 39 -4 28 -15z m26 -195 c-5 -5 -10 7 -10 28 -2 37 -2 37 8
9 6 -16 6 -33 2 -37z m101 -10 c3 -5 2 -10 -4 -10 -5 0 -13 5 -16 10 -3 6 -2
10 4 10 5 0 13 -4 16 -10z m-2885 -165 c82 -17 94 -23 80 -39 -8 -10 -19 -11
-50 -3 -22 6 -40 14 -40 18 0 3 -10 4 -22 2 -28 -4 -53 11 -43 27 4 7 17 9 34
5 14 -4 33 -8 41 -10z m147 -47 c6 -5 12 -5 15 2 3 11 68 -25 68 -38 0 -13
-93 13 -98 27 -3 9 -8 9 -17 1 -9 -8 -15 -8 -20 0 -17 27 19 33 52 8z m113
-34 c0 -8 -4 -14 -10 -14 -5 0 -10 2 -10 4 0 2 -3 12 -6 20 -5 12 -2 15 10 10
9 -3 16 -12 16 -20z"/>
<path d="M2550 2426 c7 -7 14 -6 21 1 9 9 7 12 -9 10 -14 -1 -18 -5 -12 -11z"/>
<path d="M2435 2420 c3 -5 8 -10 11 -10 2 0 4 5 4 10 0 6 -5 10 -11 10 -5 0
-7 -4 -4 -10z"/>
<path d="M2533 2303 c-15 -14 -38 -18 -95 -18 -45 0 -75 -4 -73 -10 1 -5 5
-22 8 -37 4 -16 9 -39 12 -52 9 -44 26 -52 99 -46 64 5 80 14 86 45 1 6 6 15
12 22 12 14 2 33 -17 33 -8 0 -26 5 -42 11 l-28 11 33 13 c17 8 32 21 32 30 0
19 -2 19 -27 -2z"/>
<path d="M2656 2243 c-4 -5 -13 -8 -18 -8 -6 0 -13 -6 -15 -12 -6 -16 43 -18
53 -2 8 13 -9 32 -20 22z"/>
<path d="M2605 2190 c-4 -6 5 -10 19 -10 14 0 26 5 26 10 0 6 -9 10 -19 10
-11 0 -23 -4 -26 -10z"/>
<path d="M4293 2265 c0 -33 2 -45 4 -27 2 18 2 45 0 60 -2 15 -4 0 -4 -33z"/>
<path d="M833 2160 c0 -25 2 -35 4 -22 2 12 2 32 0 45 -2 12 -4 2 -4 -23z"/>
<path d="M750 2145 c0 -8 3 -15 8 -16 4 0 17 -2 30 -3 16 -2 22 3 22 16 0 13
-8 18 -30 18 -20 0 -30 -5 -30 -15z"/>
<path d="M901 2134 c0 -11 3 -14 6 -6 3 7 2 16 -1 19 -3 4 -6 -2 -5 -13z"/>
<path d="M870 2130 c-9 -6 -10 -10 -3 -10 6 0 15 5 18 10 8 12 4 12 -15 0z"/>
<path d="M80 2245 c1 -26 2 -28 11 -12 8 14 8 22 0 30 -8 8 -11 3 -11 -18z"/>
<path d="M110 2244 c0 -8 5 -12 10 -9 6 3 10 10 10 16 0 5 -4 9 -10 9 -5 0
-10 -7 -10 -16z"/>
<path d="M162 2240 c0 -14 2 -19 5 -12 2 6 2 18 0 25 -3 6 -5 1 -5 -13z"/>
<path d="M217 2246 c-4 -10 -5 -21 -2 -24 9 -9 17 6 13 25 -3 17 -4 17 -11 -1z"/>
<path d="M191 2234 c0 -11 3 -14 6 -6 3 7 2 16 -1 19 -3 4 -6 -2 -5 -13z"/>
<path d="M246 2241 c-4 -7 -5 -15 -2 -18 9 -9 19 4 14 18 -4 11 -6 11 -12 0z"/>
<path d="M280 2235 c0 -8 5 -15 10 -15 6 0 10 7 10 15 0 8 -4 15 -10 15 -5 0
-10 -7 -10 -15z"/>
<path d="M311 2234 c0 -11 3 -14 6 -6 3 7 2 16 -1 19 -3 4 -6 -2 -5 -13z"/>
<path d="M341 2214 c0 -11 3 -14 6 -6 3 7 2 16 -1 19 -3 4 -6 -2 -5 -13z"/>
<path d="M210 2175 c0 -14 5 -25 10 -25 6 0 10 11 10 25 0 14 -4 25 -10 25 -5
0 -10 -11 -10 -25z"/>
<path d="M244 2179 c-3 -6 -1 -16 5 -22 8 -8 11 -5 11 11 0 24 -5 28 -16 11z"/>
<path d="M495 1859 c-4 -6 -4 -13 -1 -16 3 -4 6 -1 6 5 0 6 7 9 15 6 8 -4 15
-1 15 5 0 14 -27 14 -35 0z"/>
<path d="M2080 1655 c0 -8 7 -15 16 -15 14 0 14 3 4 15 -7 8 -14 15 -16 15 -2
0 -4 -7 -4 -15z"/>
<path d="M1868 1653 c6 -2 18 -2 25 0 6 3 1 5 -13 5 -14 0 -19 -2 -12 -5z"/>
<path d="M1938 1643 c6 -2 18 -2 25 0 6 3 1 5 -13 5 -14 0 -19 -2 -12 -5z"/>
<path d="M1998 1633 c7 -3 16 -2 19 1 4 3 -2 6 -13 5 -11 0 -14 -3 -6 -6z"/>
<path d="M1900 1610 c14 -4 36 -8 50 -8 22 0 22 1 -5 8 -16 4 -39 8 -50 8 -16
0 -15 -2 5 -8z"/>
<path d="M1998 1593 c7 -3 16 -2 19 1 4 3 -2 6 -13 5 -11 0 -14 -3 -6 -6z"/>
<path d="M348 1683 c6 -2 18 -2 25 0 6 3 1 5 -13 5 -14 0 -19 -2 -12 -5z"/>
<path d="M413 1683 c9 -2 23 -2 30 0 6 3 -1 5 -18 5 -16 0 -22 -2 -12 -5z"/>
<path d="M3848 1653 c6 -2 18 -2 25 0 6 3 1 5 -13 5 -14 0 -19 -2 -12 -5z"/>
<path d="M3891 1646 c2 -2 42 -6 89 -9 51 -3 73 -2 55 3 -30 8 -152 13 -144 6z"/>
<path d="M4192 1670 c0 -14 2 -19 5 -12 2 6 2 18 0 25 -3 6 -5 1 -5 -13z"/>
<path d="M4229 1639 c-5 -24 -3 -26 35 -27 48 -2 145 -10 199 -18 20 -3 37 -2
37 4 0 5 -44 12 -99 15 -127 9 -159 16 -163 36 -3 10 -6 7 -9 -10z"/>
<path d="M4860 1618 c0 -36 4 -35 14 5 4 16 2 27 -4 27 -5 0 -10 -14 -10 -32z"/>
<path d="M2780 1549 c0 -5 5 -7 10 -4 6 3 10 8 10 11 0 2 -4 4 -10 4 -5 0 -10
-5 -10 -11z"/>
<path d="M4351 1484 c0 -11 3 -14 6 -6 3 7 2 16 -1 19 -3 4 -6 -2 -5 -13z"/>
<path d="M4411 1364 c0 -11 3 -14 6 -6 3 7 2 16 -1 19 -3 4 -6 -2 -5 -13z"/>
<path d="M4772 1130 c0 -14 2 -19 5 -12 2 6 2 18 0 25 -3 6 -5 1 -5 -13z"/>
<path d="M4927 1124 c-4 -4 -7 -14 -7 -23 0 -11 3 -12 11 -4 6 6 10 16 7 23
-2 6 -7 8 -11 4z"/>
<path d="M4245 2891 c-38 -10 -71 -23 -73 -30 -2 -6 -10 -11 -18 -11 -8 0 -14
-4 -14 -10 0 -16 15 -12 40 10 13 11 28 20 35 20 19 0 26 -12 14 -27 -9 -10
-7 -13 6 -13 13 0 15 -3 6 -13 -8 -10 -7 -17 2 -27 9 -10 9 -11 0 -6 -7 4 -13
2 -13 -5 0 -6 8 -9 20 -6 23 6 24 1 8 -36 -7 -15 -20 -27 -28 -27 -13 0 -13
-1 0 -10 16 -10 44 15 34 31 -3 5 0 9 7 9 8 0 10 16 7 52 -5 47 -4 50 9 32 10
-13 12 -32 8 -63 -4 -27 -3 -41 3 -37 16 10 19 78 5 119 -8 22 -12 40 -11 42
2 1 19 6 38 12 62 19 -7 14 -85 -6z m29 -27 c5 -13 3 -14 -6 -7 -7 6 -20 13
-28 16 -10 4 -8 6 6 6 12 1 25 -6 28 -15z"/>
<path d="M4710 2901 c0 -5 -8 -8 -17 -7 -10 0 -19 -7 -21 -19 -2 -16 -1 -17 7
-5 9 13 11 12 11 -3 0 -28 23 -15 27 16 2 15 1 27 -2 27 -3 0 -5 -4 -5 -9z"/>
<path d="M3431 2872 c-27 -22 -32 -33 -27 -50 4 -12 12 -20 17 -17 5 4 9 0 9
-7 0 -11 2 -11 9 0 4 7 6 23 4 36 -3 12 2 28 11 35 12 10 18 8 33 -15 13 -20
17 -48 18 -109 0 -65 2 -79 12 -66 6 9 9 19 7 23 -3 5 -1 8 4 8 18 0 35 60 29
106 -9 84 -64 108 -126 56z"/>
<path d="M4378 2893 c6 -2 18 -2 25 0 6 3 1 5 -13 5 -14 0 -19 -2 -12 -5z"/>
<path d="M5277 2850 c3 -11 7 -20 8 -20 1 0 5 9 8 20 3 12 0 20 -8 20 -8 0
-11 -8 -8 -20z"/>
<path d="M2230 2851 c-15 -4 -26 -15 -28 -29 -2 -13 -11 -22 -20 -22 -9 0 -24
-5 -32 -11 -11 -7 -4 -8 24 -3 28 5 37 4 32 -5 -4 -6 -1 -11 6 -11 7 -1 -3 -9
-22 -18 -19 -9 -34 -20 -32 -24 1 -5 2 -21 2 -38 0 -16 5 -30 10 -30 6 0 10
11 10 24 0 31 10 56 22 56 5 0 6 -4 3 -10 -3 -5 -1 -10 4 -10 6 0 11 5 11 12
0 6 6 4 13 -6 13 -18 14 -18 21 -1 11 31 19 135 10 134 -5 -1 -20 -4 -34 -8z
m20 -21 c0 -5 -4 -10 -10 -10 -5 0 -10 5 -10 10 0 6 5 10 10 10 6 0 10 -4 10
-10z"/>
<path d="M3610 2820 c-12 -8 -10 -9 7 -7 12 2 26 6 29 10 11 11 -19 8 -36 -3z"/>
<path d="M3753 2770 c0 -30 2 -43 4 -27 2 15 2 39 0 55 -2 15 -4 2 -4 -28z"/>
<path d="M3853 2807 c-24 -5 -43 -14 -43 -19 0 -5 -10 -13 -22 -18 l-23 -9 22
0 c12 -1 25 4 28 9 8 13 35 13 35 -1 0 -5 -4 -7 -10 -4 -5 3 -10 1 -10 -4 0
-6 5 -11 10 -11 6 0 10 -4 10 -10 0 -5 -7 -10 -15 -10 -8 0 -15 -5 -15 -10 0
-7 7 -7 21 0 28 15 38 4 13 -15 -24 -18 -13 -19 30 -1 29 12 32 17 28 45 -2
17 -9 34 -15 38 -6 4 5 12 24 19 l34 12 -30 0 c-16 0 -49 -5 -72 -11z m37 -63
c0 -8 -5 -12 -10 -9 -6 4 -8 11 -5 16 9 14 15 11 15 -7z"/>
<path d="M4212 2785 c0 -31 13 -71 19 -60 3 6 0 26 -7 45 -7 20 -13 26 -12 15z"/>
<path d="M5069 2793 c0 -5 0 -37 1 -72 1 -41 -2 -61 -9 -57 -5 4 -15 -2 -20
-13 -15 -28 -14 -39 7 -44 16 -4 16 -5 0 -6 -24 -1 -26 -76 -2 -85 9 -3 12
-11 8 -18 -4 -7 -3 -10 1 -5 11 10 13 25 21 180 4 70 4 127 1 127 -4 0 -7 -3
-8 -7z"/>
<path d="M3371 2768 c-10 -28 -3 -51 14 -44 15 5 41 -21 46 -47 6 -28 39 1 42
37 2 30 2 30 -76 68 -13 6 -19 3 -26 -14z"/>
<path d="M2098 2773 c7 -3 16 -2 19 1 4 3 -2 6 -13 5 -11 0 -14 -3 -6 -6z"/>
<path d="M2018 2744 c-16 -8 -28 -17 -28 -19 0 -5 31 5 45 15 6 5 19 10 30 13
l20 5 -20 0 c-11 1 -32 -6 -47 -14z"/>
<path d="M3572 2738 c-20 -25 -52 -102 -52 -125 0 -25 15 -31 23 -10 3 7 6 5
6 -5 1 -10 6 -18 11 -18 6 0 10 -5 10 -11 0 -7 -9 -9 -21 -6 -28 7 -49 -2 -49
-21 0 -13 2 -13 13 3 9 11 16 14 21 7 3 -6 2 -13 -4 -17 -10 -6 -40 -70 -40
-84 0 -3 10 9 21 27 27 42 36 34 16 -15 -20 -52 -31 -123 -19 -123 6 0 12 3
15 8 2 4 2 1 1 -5 -2 -8 7 -13 24 -12 17 1 20 3 10 6 -10 2 -18 8 -18 13 0 5
6 7 14 4 10 -4 16 5 21 28 4 18 10 35 14 38 3 3 14 20 23 38 17 31 17 33 -5
65 -20 29 -22 45 -21 121 1 64 5 90 15 97 11 7 11 9 -2 9 -9 0 -21 -6 -27 -12z
m1 -68 c3 -11 1 -18 -4 -14 -5 3 -9 12 -9 20 0 20 7 17 13 -6z m-30 -280 c3
-11 1 -20 -4 -20 -5 0 -9 9 -9 20 0 11 2 20 4 20 2 0 6 -9 9 -20z"/>
<path d="M1933 2716 c-18 -6 -36 -16 -40 -20 -4 -5 0 -6 10 -3 11 4 30 10 43
13 13 3 24 10 24 15 0 5 -1 8 -2 8 -2 -1 -17 -7 -35 -13z"/>
<path d="M1973 2677 c-61 -22 -110 -45 -107 -49 3 -5 8 -20 10 -35 10 -56 21
-58 29 -5 4 29 9 52 12 52 10 0 32 -28 26 -34 -4 -3 -1 -6 5 -6 7 0 12 -7 12
-15 0 -8 8 -15 18 -14 10 0 12 3 5 6 -9 3 -9 10 3 28 9 13 15 26 15 29 -3 22
0 36 9 36 6 0 10 -7 10 -15 0 -8 4 -15 8 -15 12 0 32 -46 33 -78 1 -15 8 9 15
53 9 49 21 85 31 93 32 23 -17 12 -134 -31z"/>
<path d="M4100 2701 c0 -11 5 -23 10 -26 6 -3 10 3 10 14 0 11 -4 23 -10 26
-5 3 -10 -3 -10 -14z"/>
<path d="M4081 2694 c0 -11 3 -14 6 -6 3 7 2 16 -1 19 -3 4 -6 -2 -5 -13z"/>
<path d="M4275 2699 c-11 -17 1 -21 15 -4 8 9 8 15 2 15 -6 0 -14 -5 -17 -11z"/>
<path d="M2110 2691 c0 -5 7 -11 14 -14 10 -4 13 -1 9 9 -6 15 -23 19 -23 5z"/>
<path d="M3337 2686 c-4 -11 -3 -24 3 -30 14 -14 18 -5 10 24 -5 23 -7 23 -13
6z"/>
<path d="M3751 2684 c0 -11 3 -14 6 -6 3 7 2 16 -1 19 -3 4 -6 -2 -5 -13z"/>
<path d="M3899 2683 c-1 -10 -1 -22 0 -27 1 -4 -4 -15 -10 -22 -9 -11 -9 -18
-2 -25 11 -11 14 -2 28 69 2 12 0 22 -6 22 -5 0 -10 -8 -10 -17z"/>
<path d="M4205 2680 c-3 -5 -1 -10 4 -10 6 0 11 5 11 10 0 6 -2 10 -4 10 -3 0
-8 -4 -11 -10z"/>
<path d="M2197 2653 c-10 -10 -8 -53 2 -53 8 0 20 32 21 53 0 9 -14 9 -23 0z"/>
<path d="M3465 2640 c-10 -11 -24 -20 -32 -20 -7 0 -13 -4 -13 -10 0 -12 20
-13 35 -2 11 7 38 52 32 52 -2 0 -12 -9 -22 -20z"/>
<path d="M3737 2654 c-13 -13 -7 -44 8 -44 16 0 17 5 6 33 -3 10 -10 15 -14
11z"/>
<path d="M2160 2591 c0 -32 -3 -79 -6 -105 -5 -30 -3 -46 4 -46 7 0 12 39 14
105 2 58 0 105 -4 105 -5 0 -8 -26 -8 -59z"/>
<path d="M5372 2621 c-12 -10 -24 -34 -27 -52 -5 -34 -5 -34 8 -7 7 14 21 36
31 47 25 27 16 37 -12 12z"/>
<path d="M2095 2621 c-3 -5 -1 -12 5 -16 5 -3 9 -25 9 -48 l-2 -42 -7 35 c-7
34 -7 34 -9 -13 0 -30 3 -46 9 -42 18 11 11 -37 -7 -51 -17 -12 -16 -13 4 -14
23 0 26 10 37 143 4 51 2 57 -14 57 -10 0 -21 -4 -25 -9z"/>
<path d="M3821 2607 c-13 -21 -12 -21 5 -5 10 10 16 20 13 22 -3 3 -11 -5 -18
-17z"/>
<path d="M3256 2595 c4 -8 10 -15 14 -15 5 0 17 -3 27 -7 17 -6 17 -5 -1 15
-22 25 -48 30 -40 7z"/>
<path d="M2004 2588 c-4 -6 -2 -14 4 -16 15 -5 16 -52 2 -52 -5 0 -10 -16 -10
-35 0 -20 5 -35 12 -35 6 0 3 -9 -7 -20 -18 -19 -17 -20 3 -20 20 0 22 5 22
64 0 35 3 78 6 95 5 24 3 31 -9 31 -9 0 -19 -5 -23 -12z"/>
<path d="M3872 2587 c-18 -7 -41 -27 -53 -47 l-21 -34 36 32 c20 18 39 32 41
32 2 0 -7 -19 -20 -42 -26 -45 -32 -74 -15 -63 6 4 8 11 5 16 -4 5 -1 9 6 9 8
0 10 -15 6 -52 -6 -49 -21 -73 -39 -62 -4 3 -8 0 -8 -5 0 -6 7 -11 15 -11 10
0 15 -11 16 -32 0 -18 3 -27 6 -20 10 24 23 11 25 -25 l1 -38 4 35 c6 49 18
60 59 53 26 -4 34 -2 34 10 0 13 -10 15 -57 11 -32 -2 -53 -2 -46 2 10 4 10
10 1 24 -7 11 -9 23 -5 27 5 4 12 2 16 -6 11 -17 23 42 14 66 -6 16 -5 16 10
4 15 -12 17 -11 17 8 0 11 9 26 20 33 26 17 25 33 -2 53 -13 8 -22 19 -20 22
6 12 -11 12 -46 0z"/>
<path d="M2190 2539 c0 -31 4 -48 10 -44 6 3 10 26 10 51 0 24 -4 44 -10 44
-5 0 -10 -23 -10 -51z"/>
<path d="M3718 2548 c-3 -24 -1 -47 3 -52 5 -6 9 5 10 25 0 28 2 30 9 14 10
-24 13 -2 4 33 -10 35 -21 26 -26 -20z"/>
<path d="M245 2570 c3 -5 16 -10 28 -9 21 0 21 1 2 9 -28 12 -37 12 -30 0z"/>
<path d="M1934 2572 c-6 -4 -9 -29 -8 -57 1 -27 -3 -56 -9 -63 -8 -10 -7 -16
4 -23 12 -8 12 -10 -1 -19 -8 -5 -21 -10 -27 -10 -7 0 -13 -10 -13 -22 0 -35
11 -68 20 -63 11 7 24 -96 16 -131 -3 -16 -2 -35 3 -42 12 -19 20 100 12 173
-7 55 -8 58 -19 35 -12 -27 -13 -26 -17 8 -2 17 4 26 20 32 20 8 24 18 30 83
8 83 5 110 -11 99z"/>
<path d="M3328 2573 c7 -3 16 -2 19 1 4 3 -2 6 -13 5 -11 0 -14 -3 -6 -6z"/>
<path d="M3450 2563 c0 -11 -93 -53 -118 -53 -45 0 -80 13 -90 34 -10 20 -10
20 -21 -8 -6 -16 -8 -38 -4 -50 4 -11 6 -24 5 -28 -1 -4 19 -7 45 -6 32 0 52
6 62 19 9 10 23 19 31 21 8 2 21 10 28 18 11 13 13 10 8 -17 -8 -48 9 -135 30
-150 22 -16 34 -17 34 -2 0 5 -4 7 -10 4 -13 -8 -6 151 9 187 6 17 7 29 1 33
-6 4 -10 3 -10 -2z"/>
<path d="M3785 2559 c-4 -6 -5 -12 -2 -15 2 -3 7 2 10 11 7 17 1 20 -8 4z"/>
<path d="M4801 2557 c-24 -12 -48 -67 -30 -67 5 0 9 6 9 13 0 7 9 23 21 36 17
18 23 20 36 9 14 -11 15 -11 12 1 -7 21 -20 23 -48 8z"/>
<path d="M1887 2496 c-5 -21 -6 -40 -3 -43 9 -10 18 24 14 54 -3 26 -4 25 -11
-11z"/>
<path d="M950 2430 c-3 -52 -4 -97 -3 -99 10 -16 13 19 11 100 l-3 94 -5 -95z"/>
<path d="M1974 2420 c0 -58 1 -81 3 -52 2 28 2 76 0 105 -2 28 -3 5 -3 -53z"/>
<path d="M4340 2517 c0 -3 6 -12 13 -19 7 -7 17 -24 23 -38 11 -25 11 -25 10
7 -1 17 -3 29 -5 27 -2 -2 -13 3 -23 13 -10 9 -18 13 -18 10z"/>
<path d="M3741 2493 c0 -13 -7 -23 -13 -23 -10 0 -9 -3 1 -9 11 -7 11 -9 0
-14 -11 -4 -11 -6 -1 -6 16 -1 25 21 19 51 l-4 23 -2 -22z"/>
<path d="M4312 2488 c-7 -7 -11 -23 -11 -37 1 -21 2 -22 6 -6 3 11 12 28 21
38 17 19 3 24 -16 5z"/>
<path d="M2062 2450 c0 -19 2 -27 5 -17 2 9 2 25 0 35 -3 9 -5 1 -5 -18z"/>
<path d="M2190 2464 c0 -8 5 -12 10 -9 6 4 8 11 5 16 -9 14 -15 11 -15 -7z"/>
<path d="M40 2460 c0 -5 5 -10 10 -10 6 0 10 5 10 10 0 6 -4 10 -10 10 -5 0
-10 -4 -10 -10z"/>
<path d="M1826 2451 c-10 -11 -23 -19 -30 -18 -6 1 -12 -10 -14 -25 -2 -16 1
-28 6 -28 5 0 9 -7 9 -15 0 -8 -4 -15 -9 -15 -10 0 -10 -41 0 -55 13 -18 47
-32 63 -26 14 5 17 21 15 100 -1 99 -9 116 -40 82z m20 -82 c10 -17 -13 -36
-27 -22 -12 12 -4 33 11 33 5 0 12 -5 16 -11z"/>
<path d="M588 2453 c6 -2 18 -2 25 0 6 3 1 5 -13 5 -14 0 -19 -2 -12 -5z"/>
<path d="M3463 2442 c0 -10 7 -24 14 -31 19 -17 18 16 -1 35 -13 12 -15 12
-13 -4z"/>
<path d="M3924 2436 c-9 -15 -14 -29 -11 -33 4 -3 10 3 14 13 3 10 11 22 17
26 6 4 8 10 4 13 -4 4 -14 -5 -24 -19z"/>
<path d="M4630 2449 c0 -5 5 -7 10 -4 6 3 10 8 10 11 0 2 -4 4 -10 4 -5 0 -10
-5 -10 -11z"/>
<path d="M5060 2440 c0 -5 5 -10 11 -10 5 0 7 5 4 10 -3 6 -8 10 -11 10 -2 0
-4 -4 -4 -10z"/>
<path d="M40 2431 c0 -6 5 -13 10 -16 6 -3 10 1 10 9 0 9 -4 16 -10 16 -5 0
-10 -4 -10 -9z"/>
<path d="M4101 2424 c0 -11 3 -14 6 -6 3 7 2 16 -1 19 -3 4 -6 -2 -5 -13z"/>
<path d="M2152 2405 c0 -16 2 -22 5 -12 2 9 2 23 0 30 -3 6 -5 -1 -5 -18z"/>
<path d="M3731 2422 c-1 -7 -5 -10 -11 -7 -6 4 -10 -6 -10 -24 0 -21 4 -29 13
-25 10 3 13 -4 11 -28 l-3 -33 8 33 c5 17 5 47 1 65 -4 17 -8 26 -9 19z"/>
<path d="M2185 2378 c3 -74 8 -85 14 -33 7 52 4 75 -8 75 -5 0 -7 -19 -6 -42z"/>
<path d="M4348 2413 c6 -2 18 -2 25 0 6 3 1 5 -13 5 -14 0 -19 -2 -12 -5z"/>
<path d="M3596 2393 c-6 -14 -5 -15 5 -6 7 7 10 15 7 18 -3 3 -9 -2 -12 -12z"/>
<path d="M2085 2378 c12 -40 16 -167 6 -186 -12 -23 -4 -59 16 -66 12 -5 14
14 11 134 -3 129 -4 140 -22 140 -14 0 -17 -5 -11 -22z"/>
<path d="M3266 2391 c-4 -7 -5 -15 -2 -18 9 -9 19 4 14 18 -4 11 -6 11 -12 0z"/>
<path d="M4635 2390 c3 -5 10 -10 16 -10 5 0 9 5 9 10 0 6 -7 10 -16 10 -8 0
-12 -4 -9 -10z"/>
<path d="M660 2386 c0 -2 7 -7 16 -10 8 -3 12 -2 9 4 -6 10 -25 14 -25 6z"/>
<path d="M808 2363 c5 -21 7 -23 10 -9 2 10 0 22 -6 28 -6 6 -7 0 -4 -19z"/>
<path d="M1997 2383 c-9 -9 -9 -53 1 -53 4 0 8 -34 10 -75 1 -43 -2 -75 -7
-75 -6 0 -5 -14 2 -32 12 -32 12 -30 17 42 6 88 1 200 -9 200 -4 0 -11 -3 -14
-7z"/>
<path d="M705 2370 c-3 -5 -1 -10 4 -10 6 0 11 5 11 10 0 6 -2 10 -4 10 -3 0
-8 -4 -11 -10z"/>
<path d="M740 2370 c0 -5 5 -10 11 -10 5 0 7 5 4 10 -3 6 -8 10 -11 10 -2 0
-4 -4 -4 -10z"/>
<path d="M4098 2373 c7 -3 16 -2 19 1 4 3 -2 6 -13 5 -11 0 -14 -3 -6 -6z"/>
<path d="M2056 2343 c-9 -33 -11 -232 -2 -241 3 -3 6 8 6 24 1 16 3 75 5 132
4 98 2 122 -9 85z"/>
<path d="M3783 2343 c9 -2 25 -2 35 0 9 3 1 5 -18 5 -19 0 -27 -2 -17 -5z"/>
<path d="M4060 2339 c0 -5 5 -7 10 -4 6 3 10 8 10 11 0 2 -4 4 -10 4 -5 0 -10
-5 -10 -11z"/>
<path d="M1055 2320 c-3 -5 -1 -10 4 -10 6 0 11 5 11 10 0 6 -2 10 -4 10 -3 0
-8 -4 -11 -10z"/>
<path d="M3496 2318 c-6 -5 -2 -8 12 -8 13 0 22 -6 22 -15 0 -8 9 -15 20 -15
11 0 20 5 20 10 0 6 6 10 13 9 26 -3 47 1 47 10 0 11 -118 19 -134 9z"/>
<path d="M2151 2280 c-1 -25 -4 -69 -7 -97 -4 -34 -3 -53 3 -53 6 0 10 8 9 18
-1 12 5 16 22 15 16 -2 22 2 22 17 0 14 -7 20 -21 20 -19 0 -21 4 -17 38 3 20
1 48 -3 62 -6 20 -7 16 -8 -20z"/>
<path d="M2227 2313 c-4 -3 -7 -11 -7 -17 0 -6 5 -5 12 2 6 6 9 14 7 17 -3 3
-9 2 -12 -2z"/>
<path d="M1960 2300 c0 -5 5 -10 10 -10 6 0 10 5 10 10 0 6 -4 10 -10 10 -5 0
-10 -4 -10 -10z"/>
<path d="M3710 2290 c0 -19 3 -21 12 -12 9 9 9 15 0 24 -9 9 -12 7 -12 -12z"/>
<path d="M1880 2276 c0 -13 -3 -45 -7 -71 -4 -32 -3 -46 4 -42 10 6 18 137 8
137 -3 0 -5 -11 -5 -24z"/>
<path d="M5061 2274 c0 -11 3 -14 6 -6 3 7 2 16 -1 19 -3 4 -6 -2 -5 -13z"/>
<path d="M0 2270 c0 -5 5 -10 10 -10 6 0 10 5 10 10 0 6 -4 10 -10 10 -5 0
-10 -4 -10 -10z"/>
<path d="M1638 2273 c7 -3 16 -2 19 1 4 3 -2 6 -13 5 -11 0 -14 -3 -6 -6z"/>
<path d="M1958 2170 c-2 -63 -1 -119 2 -125 8 -15 17 208 9 225 -4 8 -9 -37
-11 -100z"/>
<path d="M4752 2250 c0 -14 2 -19 5 -12 2 6 2 18 0 25 -3 6 -5 1 -5 -13z"/>
<path d="M4060 2238 c0 -19 2 -20 10 -8 13 19 13 30 0 30 -5 0 -10 -10 -10
-22z"/>
<path d="M1540 2246 c0 -8 51 -13 56 -5 3 5 -9 9 -25 9 -17 0 -31 -2 -31 -4z"/>
<path d="M1330 2232 c0 -4 6 -14 13 -21 10 -10 8 -12 -8 -9 -12 2 -21 -3 -23
-14 -2 -13 3 -18 17 -18 12 0 21 5 21 11 0 7 10 9 25 7 14 -3 25 -2 25 3 0 4
-10 10 -22 12 -13 2 -4 5 20 6 24 0 41 5 38 10 -4 5 0 12 6 14 7 3 -15 6 -49
6 -35 1 -63 -3 -63 -7z"/>
<path d="M1466 2231 c-4 -7 -5 -15 -2 -18 9 -9 19 4 14 18 -4 11 -6 11 -12 0z"/>
<path d="M5046 2215 c4 -8 8 -15 10 -15 2 0 4 7 4 15 0 8 -4 15 -10 15 -5 0
-7 -7 -4 -15z"/>
<path d="M5329 2188 c4 -27 6 -29 9 -10 2 12 8 20 13 17 12 -8 49 4 49 16 0 5
-17 9 -38 9 -38 0 -38 -1 -33 -32z"/>
<path d="M3731 2194 c0 -11 3 -14 6 -6 3 7 2 16 -1 19 -3 4 -6 -2 -5 -13z"/>
<path d="M4060 2185 c0 -8 5 -15 10 -15 6 0 10 7 10 15 0 8 -4 15 -10 15 -5 0
-10 -7 -10 -15z"/>
<path d="M1620 2155 c0 -8 5 -15 10 -15 6 0 10 7 10 15 0 8 -4 15 -10 15 -5 0
-10 -7 -10 -15z"/>
<path d="M1706 2155 c-4 -12 3 -15 29 -15 19 0 35 4 35 10 0 5 -6 7 -14 4 -8
-3 -17 -1 -21 5 -9 15 -22 14 -29 -4z"/>
<path d="M3700 2154 c0 -8 5 -12 10 -9 6 3 10 10 10 16 0 5 -4 9 -10 9 -5 0
-10 -7 -10 -16z"/>
<path d="M1811 2144 c0 -11 3 -14 6 -6 3 7 2 16 -1 19 -3 4 -6 -2 -5 -13z"/>
<path d="M5051 2144 c0 -11 3 -14 6 -6 3 7 2 16 -1 19 -3 4 -6 -2 -5 -13z"/>
<path d="M980 2136 c0 -6 9 -12 20 -12 11 0 20 3 20 7 0 4 -9 9 -20 12 -12 3
-20 0 -20 -7z"/>
<path d="M4753 2095 c0 -33 2 -45 4 -27 2 18 2 45 0 60 -2 15 -4 0 -4 -33z"/>
<path d="M1040 2131 c0 -6 5 -13 10 -16 6 -3 10 -1 10 6 0 8 4 9 13 0 10 -8
14 -7 14 4 0 9 -10 15 -24 15 -12 0 -23 -4 -23 -9z"/>
<path d="M1170 2129 c0 -5 6 -9 14 -9 8 0 17 -6 19 -12 4 -8 6 -7 6 3 1 9 -8
19 -19 22 -11 3 -20 1 -20 -4z"/>
<path d="M1310 2125 c0 -18 16 -20 23 -2 4 10 6 10 6 0 1 -19 51 -16 51 2 0
11 -11 15 -40 15 -29 0 -40 -4 -40 -15z"/>
<path d="M1400 2125 c0 -8 2 -15 4 -15 2 0 6 7 10 15 3 8 1 15 -4 15 -6 0 -10
-7 -10 -15z"/>
<path d="M1430 2125 c0 -8 5 -15 10 -15 6 0 10 7 10 15 0 8 -4 15 -10 15 -5 0
-10 -7 -10 -15z"/>
<path d="M1460 2124 c0 -8 5 -12 10 -9 6 3 10 10 10 16 0 5 -4 9 -10 9 -5 0
-10 -7 -10 -16z"/>
<path d="M1100 2120 c0 -5 5 -10 10 -10 6 0 10 5 10 10 0 6 -4 10 -10 10 -5 0
-10 -4 -10 -10z"/>
<path d="M1230 2119 c0 -6 4 -8 9 -5 5 4 11 1 13 -6 3 -8 6 -7 10 3 4 10 -1
15 -13 16 -10 1 -19 -3 -19 -8z"/>
<path d="M1620 2103 c0 -14 2 -15 9 -4 5 7 14 10 20 7 6 -4 11 -2 11 3 0 6 -9
11 -20 11 -12 0 -20 -7 -20 -17z"/>
<path d="M3725 2110 c-3 -5 -1 -10 4 -10 6 0 11 5 11 10 0 6 -2 10 -4 10 -3 0
-8 -4 -11 -10z"/>
<path d="M5318 2030 c-2 -50 0 -90 5 -90 4 0 7 41 7 90 0 50 -2 90 -4 90 -3 0
-6 -41 -8 -90z"/>
<path d="M4280 2020 c-3 -47 -4 -87 -3 -89 10 -15 13 18 11 90 l-3 84 -5 -85z"/>
<path d="M2051 2074 c0 -11 3 -14 6 -6 3 7 2 16 -1 19 -3 4 -6 -2 -5 -13z"/>
<path d="M4842 2035 c0 -16 2 -22 5 -12 2 9 2 23 0 30 -3 6 -5 -1 -5 -18z"/>
<path d="M4676 1935 c-3 -8 -1 -15 4 -15 6 0 10 7 10 15 0 8 -2 15 -4 15 -2 0
-6 -7 -10 -15z"/>
<path d="M5315 1920 c-3 -5 -1 -10 4 -10 6 0 11 5 11 10 0 6 -2 10 -4 10 -3 0
-8 -4 -11 -10z"/>
<path d="M3925 1870 c-3 -5 -1 -10 4 -10 6 0 11 5 11 10 0 6 -2 10 -4 10 -3 0
-8 -4 -11 -10z"/>
<path d="M3975 1870 c27 -12 35 -12 35 0 0 6 -12 10 -27 9 -25 0 -26 -1 -8 -9z"/>
<path d="M4147 1854 c-11 -11 3 -24 18 -18 8 4 12 10 9 15 -6 11 -18 12 -27 3z"/>
<path d="M4321 1764 c0 -11 3 -14 6 -6 3 7 2 16 -1 19 -3 4 -6 -2 -5 -13z"/>
<path d="M4980 1743 c0 -5 5 -15 10 -23 8 -12 10 -11 10 8 0 12 -4 22 -10 22
-5 0 -10 -3 -10 -7z"/>
<path d="M330 1481 c0 -6 4 -13 10 -16 6 -3 7 1 4 9 -7 18 -14 21 -14 7z"/>
<path d="M1245 1480 c-3 -5 -1 -10 4 -10 6 0 11 5 11 10 0 6 -2 10 -4 10 -3 0
-8 -4 -11 -10z"/>
<path d="M265 1471 c-3 -5 -1 -12 5 -16 5 -3 10 1 10 9 0 18 -6 21 -15 7z"/>
<path d="M460 1465 c12 -15 30 -12 30 6 0 5 -10 9 -21 9 -18 0 -19 -2 -9 -15z"/>
<path d="M500 1460 c0 -5 5 -10 10 -10 6 0 10 5 10 10 0 6 -4 10 -10 10 -5 0
-10 -4 -10 -10z"/>
<path d="M738 1423 c6 -2 18 -2 25 0 6 3 1 5 -13 5 -14 0 -19 -2 -12 -5z"/>
<path d="M780 1420 c0 -6 -8 -10 -17 -10 -12 0 -14 -3 -6 -11 12 -12 53 -3 53
11 0 4 -7 10 -15 14 -8 3 -15 1 -15 -4z"/>
<path d="M1220 1420 c0 -5 5 -10 10 -10 6 0 10 5 10 10 0 6 -4 10 -10 10 -5 0
-10 -4 -10 -10z"/>
<path d="M5310 1422 c0 -5 20 -12 45 -14 25 -2 45 0 45 4 0 5 -6 8 -14 8 -7 0
-28 3 -45 6 -18 4 -31 2 -31 -4z"/>
<path d="M998 1412 c-10 -2 -18 -7 -18 -11 0 -12 49 -10 57 2 3 5 1 7 -5 3 -5
-3 -12 -3 -14 2 -1 4 -11 6 -20 4z"/>
<path d="M1423 1413 c9 -2 25 -2 35 0 9 3 1 5 -18 5 -19 0 -27 -2 -17 -5z"/>
<path d="M820 1400 c0 -5 5 -10 10 -10 6 0 10 5 10 10 0 6 -4 10 -10 10 -5 0
-10 -4 -10 -10z"/>
<path d="M1148 1393 c7 -3 16 -2 19 1 4 3 -2 6 -13 5 -11 0 -14 -3 -6 -6z"/>
<path d="M1237 1383 c-4 -3 -7 -11 -7 -17 0 -6 5 -5 12 2 6 6 9 14 7 17 -3 3
-9 2 -12 -2z"/>
<path d="M1275 1380 c-3 -6 1 -7 9 -4 18 7 21 14 7 14 -6 0 -13 -4 -16 -10z"/>
<path d="M1448 1383 c12 -2 30 -2 40 0 9 3 -1 5 -23 4 -22 0 -30 -2 -17 -4z"/>
<path d="M878 1373 c7 -3 16 -2 19 1 4 3 -2 6 -13 5 -11 0 -14 -3 -6 -6z"/>
<path d="M1158 1363 c7 -3 16 -2 19 1 4 3 -2 6 -13 5 -11 0 -14 -3 -6 -6z"/>
<path d="M910 1349 c-12 -8 -8 -10 17 -6 18 2 34 0 35 -5 2 -4 14 -4 28 -1
l25 7 -25 7 c-37 11 -63 10 -80 -2z"/>
<path d="M1420 1356 c0 -2 11 -6 25 -8 13 -3 22 -1 19 3 -5 9 -44 13 -44 5z"/>
<path d="M868 1343 c7 -3 16 -2 19 1 4 3 -2 6 -13 5 -11 0 -14 -3 -6 -6z"/>
<path d="M1238 1343 c7 -3 16 -2 19 1 4 3 -2 6 -13 5 -11 0 -14 -3 -6 -6z"/>
<path d="M905 1310 c3 -5 15 -10 26 -10 11 0 17 5 14 10 -3 6 -15 10 -26 10
-11 0 -17 -4 -14 -10z"/>
<path d="M5302 910 c0 -14 2 -19 5 -12 2 6 2 18 0 25 -3 6 -5 1 -5 -13z"/>
<path d="M608 63 c6 -2 18 -2 25 0 6 3 1 5 -13 5 -14 0 -19 -2 -12 -5z"/>
</g>
</svg>
